<?xml version="1.0"?>
<svg xmlns="http://www.w3.org/2000/svg" version="1.2" baseProfile="tiny" width="800" height="610" viewBox="0 0 800 610" stroke-linecap="round" stroke-linejoin="round">
<g id="ir">
<path d="M 62.16 33.63 61.9 33.84 57.34 37.63 56.43 39.36 55.23 43.74 55.8 46.1 56.85 48.28 56.84 50.33 55.29 52.52 48.19 58.29 45.87 61.38 45.42 63.18 45.96 64.55 48.58 67.35 48.86 67.35 48.87 67.92 49.11 68.22 49.44 68.45 49.71 68.79 49.97 69.52 50.03 69.97 49.86 70.17 49.74 70.39 49.71 71.76 51.17 82.91 52 83.79 52.18 84.13 52.23 84.29 52.56 86.78 52.39 87 52 87.17 51.61 87.43 51.43 87.9 51.74 88.54 52.31 89.37 52.58 90.12 55.35 92.76 56.38 94.65 55.91 99.79 56.47 102.02 58.04 103.89 70.1 110.2 75.48 110.97 79.9 111.02 85.63 115.19 86.32 116.3 91.46 118.62 93.25 119.94 95.17 120.59 96.38 119.92 97.06 119.06 97.19 118.69 97.8 117.53 99.16 116.18 101.64 114.89 103.68 114.55 104.69 114.63 105.82 113.77 107.56 112.85 109.47 113.1 110.78 114.16 112.42 114.98 114.53 115.36 115.83 116.25 116.02 117.13 115.47 117.74 117.11 121.57 117.08 124.32 118.56 126.06 122.6 126.5 132.41 125.59 138.13 135.88 137.13 136.14 135.9 136.74 135.73 137.55 136.02 138.24 135.81 138.88 135.09 140.02 133.34 141.65 130.23 142.76 125.54 142.43 121.25 141.47 119.67 140.59 118.96 139.96 118.13 139.4 117.55 138.77 117.24 138.27 116.76 137.95 95.37 139.54 84.98 138.34 81.36 139.5 80.44 140.45 80.38 142.44 78.39 144.88 71.67 146.63 70.43 147.73 69.94 148.39 69.04 149.15 68.47 151.16 66.18 153.27 65.49 154.62 63.87 155.93 62.47 156.62 62.45 156.64 61.53 156.37 60.45 156.38 59.08 156.94 58.35 157.1 58.34 157.11 58.33 157.11 58.32 157.11 58.32 157.11 57.51 157.57 56.59 157.82 55.7 157.72 54.97 157.11 54.96 157.11 54.96 157.11 54.96 157.1 54.69 156.43 54.93 155.58 55.44 154.73 55.95 154.08 56.12 153.25 55.6 152.41 54.31 151.06 54.1 150.19 54.21 148.29 54.01 147.49 53.41 147.01 52.64 146.52 52.41 146.03 53.41 145.5 52.63 144.7 52.35 143.98 52.24 142.2 52.04 141.25 51.6 140.21 50.87 139.47 49.82 139.41 47.51 140.15 46.3 140.23 45.18 139.8 44.71 139.37 44.56 138.99 44.49 138.58 44.29 138.05 43.96 137.65 43.6 137.37 43.34 137.03 43.3 136.45 42.77 135.99 42.12 135.53 41.97 135.43 41.37 134.81 41.45 134.15 41.63 134.05 42.15 133.89 42.27 133.81 42.31 132.94 42.75 131.52 43.55 130.03 43.62 129.26 43.18 128.37 42.18 126.88 41.57 126.21 40.87 125.91 40.34 125.9 39.85 125.77 39.42 125.53 39.04 125.16 38.53 124.8 37.93 124.72 36.65 124.78 35.57 124.58 34.75 124.14 34.42 123.42 34.87 122.4 36.33 120.95 36.9 120.21 37.13 119.22 36.93 118.29 36.55 117.62 36.31 116.89 36.55 115.78 37 115.33 37.07 114.88 36.79 114.51 35.89 114.13 35.42 113.72 35.13 113.59 34.73 113.6 33.92 113.8 33.53 113.74 33.34 113.53 33.13 112.9 32.97 112.63 32.67 112.46 32.37 112.38 32.07 112.27 31.83 112 31.5 111.27 31.49 110.86 32.06 109.67 32.31 108.87 32.06 108.18 31.67 107.47 31.53 106.64 31.82 105.9 32.34 105.55 32.91 105.28 33.39 104.78 33.52 103.44 32.59 102.57 30.21 101.35 29.86 100.79 29.62 100.21 29.24 99.83 27.74 100.01 27.35 99.67 26.77 98.49 26.13 98.1 24.59 97.99 24.04 97.73 23.78 97.06 24.33 95.83 24.16 95.13 24.16 95.12 23.94 94.28 24.02 93.25 24.29 92.23 24.67 91.4 24.51 90.7 23.57 90.14 22.74 89.39 22.93 88.14 23.27 87.77 24.7 86.86 25.12 86.32 25.03 85.93 23.51 84.46 22.48 83.75 21.32 83.33 20.2 83.43 19.67 83.67 19.01 83.85 18.43 83.81 18.12 83.34 18.15 83.09 18.32 82.43 18.29 82.22 17.97 82.03 17.7 82.08 17.42 82.16 17.1 82.07 16.64 81.61 16.41 81.1 16.25 80.62 16.01 80.24 15.56 79.99 14.08 79.42 13.58 79.3 10.9 79.55 9.46 79.36 8.74 78.46 8.86 78.15 8.92 78 9.34 77.58 9.71 77.13 9.67 76.61 9.47 76.03 9.54 75.5 9.79 75 10.14 74.47 10.15 74.46 10.53 73.86 11.53 72.97 11.89 72.34 12.23 71.47 12.62 70.95 13.16 70.61 13.96 70.3 14.18 70.04 13.85 69.26 13.91 68.9 14.25 68.67 14.98 68.43 15.29 68.1 15.56 67.5 15.81 66.68 15.96 65.88 15.78 63.9 16.94 62.86 18.44 61.94 19.37 60.89 19.35 60.23 19.03 59.58 18.52 59.02 17.94 58.63 17.29 58.43 16.77 58.52 15.41 59.14 13.34 58.84 12.73 58.62 12.35 58.41 12.23 58.05 12.37 57.38 12.39 56.99 12.27 55.95 12.27 55.46 12.79 53.79 12.84 53.09 12.46 50.98 12.65 49.35 12.66 48.49 12.37 47.81 12.07 47.54 11.75 47.37 11 47.19 10.48 46.98 10.61 46.73 10.97 46.44 11.15 46.14 10.95 45.39 10.74 44.9 10.66 44.38 10.83 43.55 11.95 40.56 11.75 39.35 9.56 38.53 8.89 38.02 8.33 37.4 7.93 36.47 7.75 36.16 7.61 35.84 7.63 35.5 7.61 35.13 7.29 34.87 6.92 34.64 6.67 34.35 6.49 33.71 6.37 33.43 6.14 33.14 6.14 33.13 6.72 32.37 7.39 31.93 7.79 31.44 7.41 29.81 7.62 29.16 8.44 27.9 8.1 26.89 6.51 26.01 4.67 25.25 3.6 24.62 3.55 24.26 3.84 23.51 3.8 23.14 3.3 22.33 3.16 21.97 3.14 21.6 3.25 21.33 3.26 21.02 2.77 20.21 2.53 19.33 2.34 18.94 2.34 18.92 1.25 17.92 1 17.42 1.46 16.93 2.3 16.52 2.92 16.34 3.57 16.33 4.49 16.42 5.44 16.34 7.68 15.88 8.67 15.96 11.53 17.06 12.58 17.13 13.49 16.96 15.63 16.21 16.42 15.75 17.12 14.93 17.14 14.19 16.99 13.41 17.2 12.48 17.2 12.48 17.61 11.99 17.64 11.5 17.5 10.97 17.42 10.38 17.5 9.7 17.69 9.15 19.06 7.02 19.3 6.49 19.33 6.33 19.41 5.84 19.2 4.49 19.38 4.02 23.77 1.23 24.79 1 25.43 1.35 26.54 2.65 27.11 3.15 29.58 4.04 30.38 4.56 33.74 6.44 33.85 6.56 34.45 6.83 34.61 6.9 35.49 7.03 36.44 7.05 36.32 7.24 36.16 7.36 37.03 7.84 37.52 8.73 38.76 12.71 39.27 13.54 40.14 14.13 39.79 14.63 39.95 14.93 41 15.52 41.22 15.55 41.66 15.54 41.99 15.61 42.13 15.77 42.22 15.96 42.37 16.11 43.84 16.89 43.86 16.9 44.09 17.11 44.22 17.4 44.56 17.83 44.98 18.22 45.36 18.39 45.69 18.79 46.45 20.1 46.7 20.53 47.05 20.93 47.34 21.38 47.77 23.43 48.04 24.06 49.12 23.8 53.43 24.91 53.53 24.83 53.82 24.68 54.19 24.56 54.58 24.6 54.7 24.86 54.59 25.25 54.58 25.6 54.99 25.75 55.57 25.84 56.12 26.11 56.35 26.55 56 27.16 56.27 27.58 56.63 27.79 57.01 27.97 57.4 28.29 57.57 28.62 57.9 29.51 58.11 29.85 58.5 30.08 59.49 30.43 59.68 30.7 59.59 31.13 59.42 31.47 59.3 31.83 59.38 32.27 59.85 32.71 60.73 33.17 61.67 33.53 62.16 33.63 Z" id="1"/>
<path d="M 132.41 125.59 122.6 126.5 118.56 126.06 117.08 124.32 117.11 121.57 115.47 117.74 116.02 117.13 115.83 116.25 114.53 115.36 112.42 114.98 110.78 114.16 109.47 113.1 107.56 112.85 105.82 113.77 104.69 114.63 103.68 114.55 101.64 114.89 99.16 116.18 97.8 117.53 97.19 118.69 97.06 119.06 96.38 119.92 95.17 120.59 93.25 119.94 91.46 118.62 86.32 116.3 85.63 115.19 79.9 111.02 75.48 110.97 70.1 110.2 58.04 103.89 56.47 102.02 55.91 99.79 56.38 94.65 55.35 92.76 52.58 90.12 52.31 89.37 51.74 88.54 51.43 87.9 51.61 87.43 52 87.17 52.39 87 52.56 86.78 52.23 84.29 52.18 84.13 52 83.79 51.17 82.91 49.71 71.76 49.74 70.39 49.86 70.17 50.03 69.97 49.97 69.52 49.71 68.79 49.44 68.45 49.11 68.22 48.87 67.92 48.86 67.35 48.58 67.35 45.96 64.55 45.42 63.18 45.87 61.38 48.19 58.29 55.29 52.52 56.84 50.33 56.85 48.28 55.8 46.1 55.23 43.74 56.43 39.36 57.34 37.63 61.9 33.84 62.16 33.63 62.82 33.77 63.67 34.15 63.86 34.19 64.17 34.24 65.32 34.27 67.67 34.72 71.36 34.75 73.47 35.4 74.42 35.69 83.13 37.12 85.87 38.09 88.27 38.56 88.68 38.52 91.43 38.23 92.15 37.96 94.3 36.75 95.1 36.44 95.65 36.35 97.25 36.29 98.25 36.04 98.69 36 99.26 36.09 103.56 37.59 104.31 37.75 105.05 37.72 105.95 37.44 106.62 37.11 107.26 36.7 107.83 36.2 108.3 35.61 109.47 33.73 110.02 33.18 110.77 32.68 113.17 31.73 113.85 31.22 114.54 29.97 115.04 29.36 115.37 29.15 116.05 28.86 116.38 28.65 116.61 28.4 117.67 26.96 118.24 26.46 118.86 26.05 118.87 26.05 119.56 25.8 120.21 25.79 121.36 26.19 121.98 26.32 122.48 26.24 124.96 25.16 125.28 25.97 125.43 26.05 125.48 26.48 126.05 26.99 127.32 27.46 127.93 28.3 128.69 30.82 128.54 31.65 128.26 32.39 127.41 33.3 123.82 35.23 121.25 35.49 119.6 36.24 117.78 36.51 115.87 35.29 115.01 35.33 114.91 35.96 114.88 37.17 114.6 38.31 114.03 38.7 111.83 38.29 110.3 38.42 109.87 39.01 108.77 39.52 107.1 41.22 106.44 43.8 107.62 46.06 109.73 46.97 112.56 46.17 115.39 44.97 118.11 44.38 124.29 45.75 126.02 44.65 127.59 42.99 130.17 41.47 130.68 40.94 130.07 40.76 129.5 40.09 134.24 33.65 137.35 32.02 139.04 32.13 141.82 30.83 144.49 28.97 146.12 29.45 145.55 34.14 146.19 34.87 146.29 37.98 148.69 42.64 148.25 45.4 146.72 47.01 146.76 48.16 148.93 49.13 149.71 51.15 147.69 52.23 144.73 51.86 141.92 52.51 140.18 53.98 136.88 55.87 135.57 57.79 134.52 58.87 133.67 60.37 133.48 62.5 133.97 63.78 135.96 63.16 138.6 62.91 139.9 63.91 140.48 64.24 141.68 64.41 150.97 63.34 153.86 64.47 155.08 67.5 155.34 70.79 157.43 74.87 160.7 78.38 163.46 80.4 163.89 81.15 163.47 82.29 162.54 83.86 162.17 87.63 163.4 92.15 167.44 94.13 167.7 94.01 168.63 94.15 171.66 95.41 172.76 96.18 173.09 99.17 174.17 101.19 176.7 102.53 177.58 103.25 179.46 104.47 179.36 104.69 179.15 105.31 179.46 105.31 179.83 104.95 180.45 104.78 181.86 104.72 182.45 104.98 183.04 105.92 183.41 105.88 183.98 106.12 184.55 106.29 184.07 106.51 182.63 107.43 179.55 108.39 169.66 107.57 166.98 107.93 163.05 107.45 150.05 108.65 148.59 109.14 147.17 109.83 144.91 111.78 142.18 112.82 140.95 113.54 139.21 115.85 132.94 120.95 132.15 122.24 132.17 124.25 132.41 125.59 Z" id="2"/>
<path d="M 184.55 106.29 183.98 106.12 183.41 105.88 183.04 105.92 182.45 104.98 181.86 104.72 180.45 104.78 179.83 104.95 179.46 105.31 179.15 105.31 179.36 104.69 179.46 104.47 177.58 103.25 176.7 102.53 174.17 101.19 173.09 99.17 172.76 96.18 171.66 95.41 168.63 94.15 167.7 94.01 167.44 94.13 163.4 92.15 162.17 87.63 162.54 83.86 163.47 82.29 163.89 81.15 163.46 80.4 160.7 78.38 157.43 74.87 155.34 70.79 155.08 67.5 153.86 64.47 150.97 63.34 141.68 64.41 140.48 64.24 139.9 63.91 138.6 62.91 135.96 63.16 133.97 63.78 133.48 62.5 133.67 60.37 134.52 58.87 135.57 57.79 136.88 55.87 140.18 53.98 141.92 52.51 144.73 51.86 147.69 52.23 149.71 51.15 148.93 49.13 146.76 48.16 146.72 47.01 148.25 45.4 148.69 42.64 146.29 37.98 146.19 34.87 145.55 34.14 146.12 29.45 144.49 28.97 141.82 30.83 139.04 32.13 137.35 32.02 134.24 33.65 129.5 40.09 130.07 40.76 130.68 40.94 130.17 41.47 127.59 42.99 126.02 44.65 124.29 45.75 118.11 44.38 115.39 44.97 112.56 46.17 109.73 46.97 107.62 46.06 106.44 43.8 107.1 41.22 108.77 39.52 109.87 39.01 110.3 38.42 111.83 38.29 114.03 38.7 114.6 38.31 114.88 37.17 114.91 35.96 115.01 35.33 115.87 35.29 117.78 36.51 119.6 36.24 121.25 35.49 123.82 35.23 127.41 33.3 128.26 32.39 128.54 31.65 128.69 30.82 127.93 28.3 127.32 27.46 126.05 26.99 125.48 26.48 125.43 26.05 125.28 25.97 124.96 25.16 125.24 25.03 125.67 24.64 125.89 24.33 126.58 22.76 128.08 20.91 128.22 20.49 128.62 20.14 130.6 19.2 134.72 17.95 135.2 17.74 136.44 17.2 137.81 16.11 137.81 16.11 139.87 14.06 141.22 13.18 142.95 12.44 145.84 11.68 146.77 11.59 147.3 11.31 149.49 9.59 150.23 9.27 155.2 7.11 156.98 5.71 157.62 5.2 158.42 4.77 159.4 4.56 162.55 4.61 163.06 4.51 163.49 4.21 163.97 3.65 163.99 3.66 164.55 3.77 165.35 4.19 167.88 6.02 174.83 12.47 177.66 14.49 178.83 15.73 179.74 17.22 179.31 17.33 178.24 17.6 176.06 18.74 173.47 19.14 172.08 19.7 170.88 20.59 170.12 21.76 170.05 23.18 170.6 24.29 171.61 25.4 173.96 27.17 176.33 27.93 176.95 28.41 178.2 30.49 178.42 31.01 178.39 31.58 178.2 32.14 178.19 32.16 177.87 32.69 177.5 33.13 177.49 33.13 177.49 33.14 175.79 33.96 168.15 35.02 168.01 35.28 168.02 35.6 167.9 35.86 165.74 36.91 165.35 37.38 165.45 39.08 166.27 40.26 168.96 41.94 174.43 44.05 174.95 44.4 175.06 44.74 175.25 45.34 175.08 46.15 175.16 46.84 177.16 48.1 177.81 48.85 178.56 49.41 179.83 49.43 181.93 48.67 182.9 48.67 183.37 49.56 183.66 50.66 184.2 51.22 184.86 51.69 185.54 52.52 186.23 53.12 186.85 53.8 187.88 54.82 188.41 55.36 189.54 56.84 190.86 57.85 191.07 57.86 191.31 58.29 192.63 59.21 193.49 60.09 193.72 60.87 194.72 61.18 196.28 61.46 196.92 62 196.55 62.75 187.21 71.49 186.36 73.08 186 75.27 184.68 76.9 184.59 79.16 188.39 87.48 195.25 96.05 197.53 97.92 200.17 99.58 201.56 100.99 201.59 102.17 201.42 103.97 201.76 106.14 202.21 107.16 199.43 105.97 197.98 106.32 196.35 107.21 194.86 107.06 193.68 106.53 192.88 106.78 192.38 107.49 192.38 108.19 191.82 108.92 190.55 109.14 187.46 106.52 185.76 106.02 184.55 106.29 Z" id="3"/>
<path d="M 202.21 107.16 201.76 106.14 201.42 103.97 201.59 102.17 201.56 100.99 200.17 99.58 197.53 97.92 195.25 96.05 188.39 87.48 184.59 79.16 184.68 76.9 186 75.27 186.36 73.08 187.21 71.49 196.55 62.75 196.92 62 196.28 61.46 194.72 61.18 193.72 60.87 193.49 60.09 192.63 59.21 191.31 58.29 191.07 57.86 192.98 57.98 193.98 57.76 195.09 57.39 196.14 56.87 196.96 56.22 197.88 55.83 199.2 55.84 201.87 56.27 201.99 59.9 201.53 61.12 201.82 62 201.9 64.18 202.68 65.71 203.26 70.76 204.96 75.58 204.64 76.37 204.6 77.31 204.78 78.2 205.09 78.84 206.55 80.72 206.57 81.15 206.44 81.52 206.37 81.82 206.81 83.44 207.67 84.99 209.77 87.48 212.55 89.78 215.57 91.5 222.24 94.26 225.33 95.09 241.22 96.79 242.93 96.59 244.34 96.13 245.67 95.93 247.15 96.54 246.75 96.59 246.3 96.49 246.06 96.46 245.73 96.79 249.18 97.86 254.56 98.85 256.49 99.45 257.8 100.44 257.64 101.93 258 102.5 258.54 104 258.92 104.59 259.52 105.33 260.49 107.57 261.73 109.2 263.17 110.31 266.16 112.11 268.2 114.09 268.83 114.39 269.63 114.58 272.23 115.98 272.2 116.12 271.81 117.17 270.4 118.74 268.24 119.66 266.58 120.98 265.67 124.41 263.14 128.04 261 129.16 255.38 128.72 251.94 129.33 251.03 129.72 250.18 129.96 242.41 133.35 240.36 133.64 236.54 133.03 235.65 132.53 234.38 132.36 232.27 132.43 226.59 131.06 224.08 129.16 221.74 126.78 221.22 125.47 221.14 124.77 217.23 123.26 214.79 116.47 213.03 114.2 208.45 110.33 202.21 107.16 Z" id="4"/>
<path d="M 62.45 156.64 62.47 156.62 63.87 155.93 65.49 154.62 66.18 153.27 68.47 151.16 69.04 149.15 69.94 148.39 70.43 147.73 71.67 146.63 78.39 144.88 80.38 142.44 80.44 140.45 81.36 139.5 84.98 138.34 95.37 139.54 116.76 137.95 117.24 138.27 117.55 138.77 118.13 139.4 118.96 139.96 119.67 140.59 121.25 141.47 125.54 142.43 130.23 142.76 133.34 141.65 135.09 140.02 135.81 138.88 136.02 138.24 135.73 137.55 135.9 136.74 137.13 136.14 138.13 135.88 139.33 136.85 160.16 140.19 160.3 140.38 161.6 141.55 161.89 141.98 162.05 142.78 162.44 143.7 162.91 144.51 163.3 144.97 162.87 145.3 162.79 145.66 163.04 146.66 162.99 146.95 162.82 147.21 162.68 147.48 162.73 147.79 162.9 147.84 163.62 147.92 164.4 150.25 164.4 154.45 163.49 157.48 161.86 158.86 161.18 160.35 161.75 161.45 173.12 167.07 173.88 167.65 174.7 168.78 175.06 169.67 168.98 166.96 167.49 167.3 168.23 168.95 169.44 170.24 169.93 171.12 169.92 172.17 166.98 172.98 165.79 173.93 164.44 174.42 163.16 174.13 161.2 170.83 160.26 170.91 158.09 172.88 157.44 173.92 160.32 177.4 164.78 185.53 166.81 187.55 168.5 188.41 170.86 190.33 172 194.15 171.18 197.24 169.72 199.15 168.35 200.14 167.45 199.75 166.13 197.06 165.36 197.22 164.89 198.38 163.38 199.05 160.85 199.65 159.59 200.21 158.32 200.24 156.53 200.03 150.18 194.15 145.45 192.39 143.82 191.25 142.62 191.16 142.17 191.95 142.92 193.18 142.78 194.58 141.36 195.65 135.45 195.97 135.02 196.77 134.77 199.45 133.93 199.85 132.31 199.76 129.74 199.96 127.24 202.1 125.51 202.58 124.98 203.49 124.97 204.68 124.09 205.51 122.75 205.69 121.93 206.59 121.75 207.95 120.16 208.64 117.35 208.97 113.63 208.61 111.15 208.83 109.78 207.59 109.73 205.97 110.06 204.75 109.89 203.88 108.94 203.94 107.17 202.93 97.24 191.79 89.38 186.73 88.24 186.41 88.33 186.24 88.03 185.03 87.04 184.09 84.75 182.42 82.11 178.96 81.57 177.77 81.55 177.39 81.66 177.05 81.87 176.78 82.2 176.58 82.37 176.41 82.42 176.24 82.36 176.07 82.2 175.9 81.74 175.11 81.38 174.27 81.57 174.23 81.77 174.23 83.03 174.55 83.14 173.98 82.74 172.39 82.74 171.71 82.89 170.98 83.22 170.33 83.74 169.85 84.59 169.61 87.48 169.68 88.33 169.52 90.41 168.63 92.03 168.7 92.89 168.62 93.54 168.12 94.1 167.44 95.36 166.79 96.01 166.31 96.5 165.63 96.58 164.98 96.27 164.43 95.58 164.03 94.69 163.96 93.95 164.26 93.25 164.66 92.46 164.89 90.71 165.2 89.82 165.23 88.99 164.94 88.65 164.72 88.4 164.49 88.22 164.2 88.01 163.36 87.82 163.21 87.51 163.17 86.24 162.77 85.56 162.76 84.89 162.97 84.09 163.34 83.26 163.56 80.63 163.46 79.3 163.84 78.88 163.8 78.45 163.69 78.03 163.67 77.03 164.37 76.23 164.69 75.38 164.74 74.71 164.37 74.24 164.29 72.68 164.67 71.94 164.5 71.43 163.96 70.38 161.83 68.46 159.62 67.23 158.71 66.11 158.53 65.57 158.26 64.04 157.11 62.45 156.64 Z" id="5"/>
<path d="M 88.24 186.41 89.38 186.73 97.24 191.79 107.17 202.93 108.94 203.94 109.89 203.88 110.06 204.75 109.73 205.97 109.78 207.59 111.15 208.83 113.63 208.61 117.35 208.97 120.16 208.64 121.75 207.95 121.93 206.59 122.75 205.69 124.09 205.51 124.97 204.68 124.98 203.49 125.51 202.58 127.24 202.1 129.74 199.96 132.31 199.76 133.93 199.85 134.77 199.45 135.02 196.77 135.45 195.97 141.36 195.65 142.78 194.58 142.92 193.18 142.17 191.95 142.62 191.16 143.82 191.25 145.45 192.39 150.18 194.15 156.53 200.03 158.32 200.24 159.59 200.21 159.62 200.83 159.39 201.99 158.03 203.28 156.39 206.3 154.45 208.66 150.31 209.05 148.99 209.48 148.4 210.13 148.8 211.77 150.9 213.17 153.94 214.54 155.3 214.76 156.42 215.25 157.03 216.96 158.08 218.28 161.61 215.24 163.51 214.55 164.46 214.38 165.25 215.37 165.67 217.05 165.22 219.78 165.32 221.71 164.06 222.57 159.42 221.75 155.33 221.99 153.8 223.9 153.08 225.06 150.24 224.75 149.04 225.01 148.25 225.45 148.12 226.37 148.5 228.61 148.26 230.92 146.26 231.78 143.3 231.9 140.92 232.88 140.67 233.46 140.77 233.87 141.02 234.14 141.3 234.39 141.51 234.72 141.59 235.2 141.47 235.97 141.51 236.42 141.67 236.73 141.08 237.53 140.36 237.95 139.68 237.78 138.27 237.68 131.64 238.95 131.64 240.22 132.77 241.63 133.38 242.67 132.81 245.34 131.94 246.75 125.47 246.51 118.43 248 113.6 247.67 103.23 244.89 100.18 242.69 97.41 241.28 94.07 240.64 90.74 240.44 84.54 238.33 78.13 239 75.7 238.94 74.94 239.69 75.52 241.26 75.06 243.92 73.49 248.04 72.61 254.03 71.68 254.68 71.53 254.36 69.58 253.19 68.96 252.67 68.39 252 67.98 251.33 67.69 250.6 67.51 249.76 67.22 249.08 66.67 248.58 66.04 248.13 65.48 247.62 61.8 242.05 61.73 241.99 61.64 241.96 61.53 241.95 60.31 242.1 59.24 242.05 58.3 241.61 57.45 240.61 58.33 240.28 58.73 240.05 59.07 239.75 59.08 239.75 59.08 239.75 59.71 238.6 60.06 237.55 60.53 236.63 61.53 235.9 62.14 235.36 63.81 234.22 64.23 233.75 64.23 233.29 63.99 232.94 63.69 232.58 63.49 232.11 63.58 231.72 64.16 230.94 64.36 230.57 64.91 228.58 65 227.56 64.77 226.62 64.14 225.81 63.28 225.36 62.36 225.37 61.53 225.91 60.77 225.45 60.24 224.55 58.96 221.15 59.36 220.61 61.53 220.21 61.83 219.98 62.1 219.72 62.34 219.42 62.53 219.09 62.59 217.87 62.25 216.2 62.42 215.06 64.03 215.46 65.45 216.07 66.72 216.33 69.57 216.51 70.48 216.78 70.72 216.73 70.89 216.47 71 216.03 71.01 215.59 70.89 215.32 70.43 214.78 70.3 214.08 70.28 213.3 70.15 212.52 69.98 212.23 69.76 212.03 69.56 211.78 69.43 211.34 69.29 211 68.99 210.7 68.61 210.46 68.27 210.3 67.66 209.73 67.97 209.06 69.12 207.97 69.25 207.5 69.15 206.67 69.28 206.17 69.69 205.7 70.21 205.52 71.39 205.42 72.54 204.76 72.74 203.75 72.66 202.71 72.94 201.91 73.89 201.87 74.64 202.2 75.12 202.41 76.24 202.73 76.87 202.04 77.18 201.03 77.53 200.28 77.64 199.5 77.26 198.43 77.26 198.42 77.14 197.86 77.15 197.31 77.35 196.83 77.79 196.48 78.06 196.4 78.64 196.36 78.89 196.25 78.97 196.06 78.86 195.55 78.9 195.35 79.47 194.58 79.76 194.49 80.37 194.66 81.24 195.12 81.67 195.27 82.2 195.23 83.44 195.67 84.1 195.53 84.7 195.07 85.81 194.52 86.23 194.48 86.97 194.64 88.02 194.36 88.53 194.27 88.98 194.08 89.3 193.58 88.45 192.76 89 191.59 89.9 190.34 90.06 189.25 89.43 188.82 87.83 188.84 87.25 188.51 87.14 187.86 87.51 187.33 88.02 186.83 88.24 186.41 Z" id="6"/>
<path d="M 71.68 254.68 72.61 254.03 73.49 248.04 75.06 243.92 75.52 241.26 74.94 239.69 75.7 238.94 78.13 239 84.54 238.33 90.74 240.44 94.07 240.64 97.41 241.28 100.18 242.69 103.23 244.89 113.6 247.67 118.43 248 125.47 246.51 131.94 246.75 132.81 245.34 133.38 242.67 132.77 241.63 131.64 240.22 131.64 238.95 138.27 237.68 139.68 237.78 140.36 237.95 140.93 238.6 141.87 240.42 142.24 242.44 142.03 243.75 141.47 244.68 140.49 245.55 138.18 246.83 137.37 247.8 122.89 251.19 120.33 253.22 119.42 255.1 118.7 255.17 117.99 255.42 117.87 256.04 117.23 257.64 117.28 257.96 117.93 258.27 118.86 259.65 120.16 260.22 121.24 261.37 122.1 261.63 124.36 262.78 124.79 262.93 124.95 263.29 124.89 263.71 124.41 264.43 124.53 264.77 125.07 265.32 125.61 265.72 126.36 266.01 127.91 266.43 127.99 266.54 128.05 266.74 128.18 266.93 128.48 267.02 128.7 266.97 128.91 266.78 129.19 266.73 129.51 266.8 129.74 266.95 129.94 267.14 131.98 268.45 132.71 268.74 132.71 269.28 133.46 269.93 134.52 270.46 136.28 270.82 141.36 272.96 141.8 273.39 142.03 273.91 142.56 274.05 143.18 274.08 143.63 274.25 144.62 275.22 145.43 276.52 145.97 277.03 146.75 277.23 147.36 277.48 148.71 278.74 153.57 284.12 160.23 295.91 161.04 296.91 161.55 297.31 157.75 304.79 154.73 308.33 154.8 310.43 155.29 313.07 153.81 315.11 149.49 317.52 148.38 317.89 148.29 317.78 147.49 317.5 146.87 317.43 146.5 317.08 146.17 316.66 145.64 316.37 144.99 316.21 144.71 316.03 144.67 315.7 144.75 315.12 144.92 314.68 145.16 314.31 145.38 313.91 145.45 313.33 145.23 312.8 144.43 312.28 144.2 311.75 143.8 311.59 143.54 311.35 142.81 310.49 142.65 310.26 142.46 310.03 141.22 309.04 141.03 308.8 140.76 308.24 140.76 308.04 140.93 307.88 141.29 307.11 141.52 306.88 141.67 306.61 141.61 306.14 141.38 305.83 140.27 305.12 139.58 304.37 139.12 303.73 138.59 303.21 137.7 302.82 135.36 302.14 134.78 302.11 132.89 302.99 132.16 303.23 130.7 303.36 129.4 303.12 128.14 302.56 126.82 301.74 126.82 301.73 126.81 301.73 114.37 292.57 112.65 290.93 109.94 289.55 108.04 288.25 107.89 288.18 104.03 286.3 102.87 285.32 98.75 283.66 94.36 282.52 89.49 282.98 87.07 282.73 86.19 281.08 86.19 281.07 86.7 280.57 87.39 280.1 88 279.56 88.27 278.86 88.04 278.29 87.44 277.85 86.66 277.57 84.85 277.39 84.27 276.98 84.31 276.48 85.14 276.09 86.05 276.02 86.74 276.06 87.42 275.95 88.29 275.4 89.4 274.47 89.97 273.89 90.27 273.36 90.24 272.98 89.76 272.73 89.58 272.34 89.61 272.01 89.86 271.21 89.85 270.79 89.48 270.09 88.9 269.6 87.59 268.71 85.94 266.76 84.56 265.64 84.34 265.04 84.32 264.35 84.19 263.51 83.86 262.73 83.39 262.01 82 260.56 81.88 260.48 81.75 260.42 81.59 260.35 81.54 260.32 81.33 260.29 81.12 260.32 80.92 260.42 80.15 261.03 78.9 261.16 77.67 260.92 76.97 260.41 77.61 259.7 79.57 258.7 80.08 258.08 79.79 257.16 78.91 256.66 78.18 256.04 78.35 254.77 77.45 254.96 75.44 254.98 74.69 255.25 73.49 256.22 72.81 256.59 72.09 256.75 71.8 256.46 71.82 254.99 71.68 254.68 Z" id="7"/>
<path d="M 148.38 317.89 149.49 317.52 153.81 315.11 155.29 313.07 154.8 310.43 154.73 308.33 157.75 304.79 161.55 297.31 163.81 294.52 169.46 282.03 171.69 280.6 181.9 280.02 184.8 279.27 189.19 279 193.48 280.07 195.6 281.8 198.18 282.46 207.33 283.24 216.96 288.82 222.77 289.28 225.81 288.75 227.81 292.92 230.04 293.93 233.63 293.72 237.78 295.05 239.49 297.01 238.6 298.16 237.5 301.24 237.66 302.46 238.33 304.96 244.56 313.31 245.86 316.09 246.86 317.2 247.89 317.83 248.49 318.42 250.44 318.95 251.13 319.53 251.68 320.63 252.8 324.08 254.05 326.56 255.31 328.27 257.37 329.86 258.17 331.06 261.68 334.29 262.89 336.58 262.77 338.5 260.52 340.91 259.05 343.33 256.3 346.48 251.35 350.27 248.16 351.42 246.75 352.34 245.71 353.53 245.03 354.87 245.06 357.29 246.95 363.13 247.07 364.8 246.86 365.42 246.68 366.66 246.26 368.01 246.54 369.02 253.59 368.22 255.26 370.06 258.49 372.81 262.43 374.62 264.76 376.08 265.47 378.26 263.08 383.1 263.37 385.25 264.69 386.54 265.47 389.29 266.17 395.78 259.8 395.49 257.41 394.49 253.16 395.11 250.5 396.25 249.4 395.89 247.92 395.73 246.38 395.94 244.88 396.4 231.9 403.58 230.4 404.13 229.07 403.88 227.91 402.4 227.81 401.73 227.79 399.86 227.47 399.14 227.17 398.77 227.06 398.55 226.91 398.37 226.46 398.14 226.06 398 225.67 397.91 224.77 397.86 224.33 397.9 223.44 398.1 222.94 398.14 222.48 398.06 221.89 397.67 221.54 397.58 220.68 397.7 219.13 398.27 218.28 398.42 217.2 398.36 216.81 398 216.87 396.29 216.75 396.17 216.17 395.82 216 395.57 215.98 395.35 216 394.73 216.06 394.42 216.23 394.15 216.21 393.89 215.72 393.6 215.48 394.31 215.04 395 214.45 395.49 213.74 395.57 212.99 395.17 212.64 394.64 212.2 394.23 211.48 394.17 210.52 393.88 207.79 392.5 207.22 392.04 206.95 390.7 206.22 389.87 205.14 389.39 203.81 389.09 204.25 388.41 204.94 388.25 206.63 388.5 207.51 388.46 208.88 388.06 209.63 387.96 210.48 388.14 212.17 388.91 212.75 389.09 213.67 389.17 214.36 389.42 214.92 389.85 215.46 390.5 215.7 389.94 216.48 388.74 217.7 387.39 217.94 386.95 217.98 386.24 217.12 386.39 216.51 386.04 216.12 385.41 215.8 383.9 215.31 384.09 214.67 384.69 214.02 385.11 214.08 384.58 214.15 384.44 214.31 384.26 213.96 383.8 213.61 383.87 213.19 384.14 212.61 384.26 212.37 384.11 211.9 383.54 211.62 383.42 211.36 383.46 210.97 383.66 210.76 383.7 209.94 383.59 209.19 383.4 208.49 383.36 207.79 383.7 206.3 383.51 205.13 384.15 204.82 385 205.94 385.42 207.25 385.65 208.29 386.22 208.61 386.95 207.79 387.67 207.09 387.66 204.86 387.4 204.38 387.52 202.12 389.34 201.95 389.53 201.59 390.02 201.38 390.54 201.85 390.91 201.68 391.21 201.41 391.54 201.27 391.75 201.57 392.64 202.3 393.28 203.13 393.83 203.81 394.47 204.16 395.21 204.43 396.14 204.66 398 204.58 398.52 204.21 399.37 204.09 399.84 204.12 400.27 204.35 401.06 204.38 401.53 204.12 402.34 203.57 403.08 202.82 403.61 201.97 403.81 199.17 403.52 198.45 403.81 197.64 403.48 194.75 403.5 193 402.66 192.33 402.53 192.22 403.25 192.42 403.74 192.97 404.52 193.08 405.09 192.96 405.5 192.66 405.86 192.29 406.15 191.93 406.35 190.98 406.6 187.95 406.35 187.95 406.07 187.73 406.32 187.68 406.42 187.39 406.31 186.11 405.99 185.5 405.67 184.93 405.27 184.66 405.04 184.47 404.76 184.1 403.96 184.01 403.42 183.26 401.37 183.14 401.3 182.91 400.87 182.09 400.06 181.57 399.1 181.49 398.82 181.58 398.36 181.9 398.01 182.3 397.7 182.6 397.35 182.71 396.91 182.63 396.46 182.42 396.04 182.15 395.69 180.54 394.42 179.21 393.11 178.37 391.89 177.98 391.61 177.48 391.46 176.96 391.44 175.45 391.66 174.95 391.68 174.46 391.61 174 391.44 173.67 391.13 173.49 390.74 173.15 388.92 172.78 388.02 172.25 387.21 171.56 386.56 171.13 386.33 170.67 386.19 166.3 385.65 166.23 384.38 166.37 364.48 166.24 363.95 165.8 363.72 152.21 363.72 152.36 353.72 152.46 346.64 158.76 332.01 159.01 331.08 158.89 330.2 158.32 329.46 156.7 328.42 156.03 327.79 155.88 327.47 155.67 326.75 155.44 326.38 155.12 326.13 154.38 325.71 154.09 325.38 152.62 323.12 152.42 322.4 152.42 322.39 152.01 321.66 150.57 321.06 149.93 320.44 148.99 318.64 148.38 317.89 Z" id="8"/>
<path d="M 568.14 78.41 563.13 80.86 561.57 82.12 561.57 83.92 561.1 85.45 560.43 86.89 562.01 87.78 580.55 88.48 581.32 89.25 581.85 90.66 582.8 92.38 586.55 95.17 587.69 97.02 587.94 98.68 587.03 100 585.94 101.07 585.56 101.79 585.52 102.61 585.11 103.84 583.62 105.5 581.14 111.34 579.46 113 579.66 114.45 581.68 115.57 582.82 116.58 583.57 117.74 584.67 117.61 585.27 116.36 585.81 116.16 586.17 117.23 586.99 118.24 588.36 118.77 588.51 119.73 586.06 121.84 585.79 122.99 586.33 123.65 587.81 124.35 588.15 125.64 586.77 128.87 585.23 130.04 582.09 130.66 570.64 129.25 543.27 117.07 536.67 116.81 526.72 123.29 524.33 125.83 524 127.72 524.32 129.18 524.19 130.31 517.89 131.17 515.83 130.53 511.9 129.99 509.57 129.36 504.88 126.12 499.98 121.71 499.21 120.41 499.36 119.58 500.14 117.11 500.35 114.31 500.14 113.21 499.88 112.77 499.61 112.44 499.87 111.83 500.93 111.15 503.35 110.58 503.78 109.63 501.77 108.96 500.14 109.18 497.2 107.53 490.95 100.89 492.2 99.93 495.23 95.67 498.23 94.67 499.48 93.76 500.73 93.31 501.84 93.17 506.68 91.84 508.96 89.33 508.19 86.81 506.5 85.79 504.55 85.02 503.15 83.7 503.05 81.82 503.9 79.16 503.93 78.18 503.44 76.44 503.33 74.94 503.6 73.77 503.32 70.87 504.61 71.29 505.28 71.37 508.82 70.9 508.99 70.8 509.32 70.92 509.45 70.91 509.6 71.08 509.7 70.86 509.95 70.87 510.29 71.02 510.2 70.11 510.69 69.47 510.98 69.37 510.89 68.98 510.68 68.78 510.64 68.31 510.43 68.35 510.13 68.13 510 68.14 509.96 68.1 509.94 67.97 510.06 67.9 509.6 66.81 509.85 66.75 510.11 66.53 509.92 66.39 510.09 66.24 510.19 66.05 510.48 65.99 512.37 64.65 513.52 63.95 514.47 63.67 518.26 63.57 518.97 63.71 519.54 63.99 520.06 64.31 520.62 64.52 521.29 64.42 521.75 64.26 521.81 64.27 522.53 64.03 522.65 63.95 524.6 63.28 526.58 63.01 526.98 63.07 528.6 64.11 530.01 64.75 530.65 64.91 536.87 65.83 537.84 66.15 538.17 66.49 538.35 66.31 538.51 66.37 539.35 66.47 539.95 66.21 540.19 66.21 540.55 66.11 540.91 65.97 541.35 65.44 541.52 65.29 542.02 65.04 542.06 65 543.14 64.58 543.33 64.45 544.08 63.27 544.59 62.81 544.73 62.77 545 62.74 545.45 62.79 546.33 63.02 546.79 63.26 546.91 63.52 546.92 63.83 547.1 64.19 548.05 65.47 548.8 66.9 549.28 67.48 550.64 68.63 551.12 69.87 552 70.86 552.2 71.58 552.1 72.27 551.29 74.45 552.33 75.55 558.28 77.42 558.72 77.37 558.8 77.49 558.94 77.55 559.35 77.52 559.84 77.24 560.21 77.32 560.56 77.13 560.97 77.18 563.08 77.66 565.09 77.62 565.55 77.53 565.6 77.56 566.28 77.68 566.47 77.57 566.89 77.78 567.41 78.13 567.94 78.4 568.14 78.41 Z" id="9"/>
<path d="M 503.32 70.87 503.6 73.77 503.33 74.94 503.44 76.44 503.93 78.18 503.9 79.16 503.05 81.82 503.15 83.7 504.55 85.02 506.5 85.79 508.19 86.81 508.96 89.33 506.68 91.84 501.84 93.17 500.73 93.31 499.48 93.76 498.23 94.67 495.23 95.67 492.2 99.93 490.95 100.89 489.24 102.01 481.55 111.47 478.13 117.54 477.32 122.07 475.94 124.92 473.84 125.71 459.07 124.09 455.55 124.42 448.32 127.75 441.31 132.16 438.76 134.4 432.93 136.61 430.05 137.13 426.82 136.72 418.72 136.83 417.04 134.76 412.66 131.13 403.54 126.7 402.09 124.7 401.63 123.67 401.58 123.13 407.82 123.58 408.47 123.87 409.17 124.07 414.35 122.93 414.84 122.6 415.12 121.91 415.14 117.64 414.92 116.93 414.31 116.65 413.52 116.4 413.64 115.8 414.58 114.39 413.6 113.17 412.94 111.65 412.02 108.16 410.77 105.46 410.58 104.88 410.19 101.37 421.47 102.16 421.82 102.14 423.87 102.31 423.94 102.19 424.61 101.81 425.54 101 428.13 101.13 430.19 100.63 431.88 99.5 432.26 99.36 432.41 99.22 432.6 99.21 432.86 98.94 433.25 98.85 433.41 98.67 433.71 98.49 433.96 98.21 434.17 98.14 434.45 98.22 434.54 98.18 434.54 98.1 434.65 98.16 434.87 97.85 435.02 97.73 435.15 97.73 435.3 97.56 435.59 97.68 435.88 97.5 436.05 97.54 436.35 97.29 436.34 97.25 436.51 97.23 436.53 97.24 436.54 97.23 436.74 97.2 439.25 97.64 440.17 97.63 440.79 97.4 440.85 97.35 440.84 97.38 440.95 97.4 440.92 97.49 441.15 97.45 441.22 97.54 441.32 97.48 441.6 97.48 442.18 97.07 442.6 96.93 442.87 96.71 443.05 96.41 443.44 96.02 443.37 95.92 443.46 95.92 443.45 95.86 443.57 95.8 443.55 95.72 443.64 95.75 443.66 95.65 443.79 95.54 444.47 95.18 444.56 95.23 444.66 95.18 444.81 95.23 444.98 95.11 445.06 95.19 445.06 94.98 445.32 95 445.36 94.86 445.44 94.95 445.57 94.97 445.65 94.75 445.53 94.57 446.15 94.15 446.29 93.93 446.52 93.82 446.67 93.37 446.68 92.84 446.81 92.61 446.88 92.48 446.89 92.45 447.03 92.19 447.06 92.05 447.14 91.97 447.45 90.48 447.23 90.05 446.98 90.05 446.97 90.04 446.49 89.69 446.34 89.47 446.33 89.18 446.35 89.18 446.33 89.17 446.32 89.07 446.33 89.07 446.32 89.06 446.31 88.87 446.37 88.9 446.46 88.83 446.34 88.78 446.36 88.68 446.47 88.62 446.48 88.73 446.62 88.69 446.47 88.49 446.59 88.53 446.61 88.4 446.81 88.26 447.02 88.24 446.92 88.11 446.96 87.95 446.86 87.95 446.88 87.87 446.75 87.74 446.76 87.73 446.96 87.74 446.83 87.59 446.84 87.57 446.97 87.56 447.05 87.45 447.2 87.41 447.15 87.27 447.37 87.28 447.3 87.22 447.35 87.17 447.21 87.09 447.43 86.99 447.45 86.89 447.59 86.81 447.58 86.73 447.47 86.67 447.74 86.66 447.77 86.6 447.65 86.55 447.78 86.43 447.64 86.26 447.72 86.24 447.64 86.05 447.73 86.05 447.79 85.97 447.86 86.02 447.88 85.97 447.78 85.85 447.83 85.53 447.91 85.49 448.05 85.57 448.02 85.46 448.17 85.49 448.15 85.44 448.31 85.32 448.28 85.24 448.41 85.25 448.43 85.14 448.51 85.1 448.49 85.01 448.72 84.97 448.57 84.93 448.6 84.82 448.48 84.81 448.49 84.72 448.63 84.77 448.66 84.7 448.83 84.69 448.82 84.56 448.9 84.54 449.09 84.6 449.03 84.56 449.13 84.53 449.09 84.45 449.15 84.37 449.07 84.36 449.12 84.24 449.23 84.22 449.22 84.17 449.35 84.18 449.44 84.03 449.51 84.06 449.55 83.87 449.62 83.84 449.69 83.83 449.71 84.03 449.76 83.86 449.86 83.86 449.81 83.77 449.93 83.78 449.95 83.85 449.98 83.72 450.05 83.7 450.09 83.77 450.19 83.7 450.16 83.78 450.25 83.8 450.38 83.7 450.51 83.8 450.63 83.79 450.59 83.93 450.49 83.95 450.58 83.99 450.71 83.83 450.67 83.65 450.8 83.69 450.88 83.6 451.04 83.56 451.11 83.44 451.27 83.39 451.27 83.32 451.4 83.39 451.46 83.18 451.62 83.18 451.62 83.11 452.04 82.99 452.12 83.14 452.14 83.07 452.25 83.12 452.29 83.01 452.42 82.94 452.37 82.87 452.56 82.94 452.68 82.91 452.7 82.86 452.53 82.87 452.63 82.81 452.64 82.7 452.8 82.73 452.86 82.64 453.22 82.5 453.24 82.34 453.37 82.34 453.4 82.27 453.28 82.27 453.24 82.19 453.35 81.99 453.68 81.8 454.06 81.77 454.09 81.73 454 81.69 454.11 81.58 454.31 81.64 454.28 81.6 454.52 81.43 454.53 81.35 454.82 81.35 454.83 81.26 454.99 81.25 454.93 81.36 455.05 81.36 455.08 81.24 454.9 81.07 455.03 81.01 455.03 80.95 455.17 80.93 455.25 80.79 455.41 80.82 455.45 80.73 455.61 80.68 455.89 80.73 455.94 80.68 456.06 80.7 455.86 80.63 455.97 80.52 455.91 80.47 456.03 80.41 455.99 80.38 456.22 80.35 456.21 80.27 456.44 80.21 456.36 80.07 456.57 80.06 456.56 80.01 456.71 79.97 456.73 79.82 456.57 79.68 456.57 79.64 457.23 79.06 457.24 79.05 457.24 79.05 457.28 79.01 457.29 79.01 457.44 78.92 457.37 78.9 457.46 78.79 457.47 78.78 457.47 78.77 457.63 78.56 457.67 78.46 457.7 78.44 457.68 78.42 457.71 78.36 457.96 78.33 458.1 78.28 458.1 78.21 458.2 78.28 458.3 78.11 458.44 78.06 458.39 77.77 458.46 77.76 458.49 77.77 458.5 77.76 458.76 77.72 458.81 77.74 458.8 77.72 458.93 77.7 459.37 77.57 459.67 77.25 460 76.71 460.13 76.71 460.11 76.62 460.21 76.58 460.15 76.5 460.33 76.47 460.37 76.31 460.49 76.34 460.58 76.28 460.69 76.41 460.77 76.33 460.89 76.37 460.95 76.27 461.02 76.34 461.16 76.29 461.12 76.15 461.22 76.25 461.45 76.23 461.55 76.29 461.69 76.02 461.89 76.04 461.87 75.94 462.02 75.98 462.1 75.84 462.11 75.84 462.21 75.98 462.49 75.96 462.52 76.07 462.6 76.04 462.64 76.1 462.97 76.13 463.06 76.38 463.21 76.39 463.3 76.27 463.42 76.39 463.44 76.32 463.6 76.27 463.5 76.15 463.62 76.11 463.52 76.01 463.67 75.97 463.61 75.94 463.67 75.83 463.6 75.78 463.72 75.61 464 75.59 464.02 75.5 464.15 75.49 464.14 75.46 464.17 75.45 464.22 75.37 464.24 75.37 464.24 75.34 464.29 75.26 464.32 75.25 464.32 75.2 464.33 75.17 464.48 75.07 464.55 75.05 464.6 75.12 464.73 75.07 464.93 75.17 464.99 75.14 464.95 75.06 465.15 74.93 465.24 75.02 465.47 74.93 465.47 74.77 465.7 74.79 465.77 74.67 465.89 74.78 465.91 74.6 466.01 74.63 466.17 74.49 466.25 74.58 466.35 74.52 466.4 74.61 467.05 74.18 468.07 73.84 468.14 73.63 468.45 73.43 471 72.48 471.4 72.2 472.21 71.41 472.89 70.98 473.59 70.75 476.21 70.66 481.83 69.73 482.8 69.71 483.68 69.61 484.17 69.45 485.02 69.32 485.06 69.31 485.62 69.31 488.18 69.76 489.79 70.49 490.4 70.66 492.5 70.67 493.2 70.84 494.32 71.31 494.9 71.46 495.54 71.49 501.45 70.64 503.12 70.81 503.32 70.87 Z" id="10"/>
<path d="M 524.19 130.31 524.32 129.18 524 127.72 524.33 125.83 526.72 123.29 536.67 116.81 543.27 117.07 570.64 129.25 582.09 130.66 585.23 130.04 586.77 128.87 588.15 125.64 587.81 124.35 586.33 123.65 585.79 122.99 586.06 121.84 588.51 119.73 588.36 118.77 586.99 118.24 586.17 117.23 585.81 116.16 585.27 116.36 584.67 117.61 583.57 117.74 582.82 116.58 581.68 115.57 579.66 114.45 579.46 113 581.14 111.34 583.62 105.5 585.11 103.84 585.52 102.61 585.56 101.79 585.94 101.07 587.03 100 587.94 98.68 587.69 97.02 586.55 95.17 582.8 92.38 581.85 90.66 581.32 89.25 580.55 88.48 562.01 87.78 560.43 86.89 561.1 85.45 561.57 83.92 561.57 82.12 563.13 80.86 568.14 78.41 568.29 78.43 568.85 78.32 568.96 78.3 569.31 78.37 569.42 78.46 569.6 78.6 569.97 79.22 570.22 79.48 570.84 79.68 571.52 79.64 571.59 79.63 572.21 79.51 572.88 79.47 572.96 79.49 574.31 79.78 574.68 79.92 574.76 79.95 579.08 81.59 579.53 81.76 579.53 81.76 579.9 81.9 580.15 81.99 580.79 82.24 581.31 82.34 583.12 82.67 583.52 82.75 583.71 82.76 584.18 82.79 584.91 82.84 585.22 82.9 585.58 82.96 586.28 83.24 586.59 83.52 586.6 83.8 586.51 84.1 586.54 84.42 587.19 85.38 587.34 85.69 587.45 86.45 587.45 87.02 587.65 87.49 588.36 87.95 589.06 88.17 592.28 88.55 592.8 88.75 593.89 89.36 594.47 89.49 594.89 89.45 596.12 89.36 598.21 89.19 598.56 89.06 598.93 88.92 599.49 88.23 599.87 87.54 600.36 86.96 601 86.59 601.46 86.56 601.81 86.54 602.49 86.82 604.56 88.28 606.35 88.87 607.28 88.98 608.21 88.9 608.56 88.73 608.57 88.72 608.83 88.48 609.13 88.29 609.55 88.29 609.6 88.29 610.48 88.42 610.9 88.39 611.34 88.28 611.45 88.17 611.89 87.73 611.99 87.12 612.22 86.83 612.75 87.06 614.7 87.93 617.9 88.51 619.54 89.11 620.12 89.44 620.67 89.58 621.87 89.73 622.33 89.93 623.68 91.04 629.19 94.2 629.66 94.24 630.05 94.26 630.08 94.27 630.6 94.08 632.4 93.42 633.35 93.62 633.47 93.71 634.18 94.25 634.98 95.13 635.17 95.67 635.04 96.59 635.29 97.04 635.4 97.39 635.23 97.76 634.98 98.16 634.84 98.62 634.94 99.49 635.75 102.34 636.23 102.9 638.82 104.62 639.6 105.31 639.84 105.59 639.79 105.79 639.64 105.93 639.58 106.04 639.53 106.32 639.41 106.66 639.53 106.96 640.21 107.1 640.47 107.32 640.81 107.54 641.16 107.68 641.5 107.69 641.84 107.59 642.81 107.28 643.42 107.36 644.11 107.96 644.41 108.6 644.61 109.38 644.89 110.07 644.92 110.09 645.04 110.12 645.21 110.06 645.82 110.34 645.83 110.35 645.84 110.35 646.13 110.1 646.61 109.49 647 109.33 647.44 109.35 651.84 110.5 653.39 110.9 653.44 110.93 653.53 110.99 656.11 112.73 657.62 113.45 658.17 113.53 659.83 113.76 661.02 113.93 662.57 114.47 663.8 115.78 665.35 118.43 667.26 120.77 671.64 125.05 672.51 126.18 673.71 128.72 674.56 129.92 675.93 130.53 676.06 130.53 682.5 130.44 688.28 130.35 697.1 130.22 702 130.15 706.23 130.09 707.53 130.28 708.29 130.38 709.17 130.48 709.97 130.57 710.31 131.97 710.65 132.61 710.8 132.99 710.87 133.51 710.81 134.02 710.76 134.15 710.72 134.26 710.65 134.48 710.46 134.81 710.42 134.88 710.17 135.19 710.11 135.34 709.99 135.63 710.06 136.13 710.31 136.75 710.18 137.23 709.94 138.11 709.86 138.42 709.42 140.07 709.4 140.23 709.25 141.5 709.18 142.1 709.43 142.61 709.71 143.17 709.75 143.24 709.77 143.28 709.75 143.3 709.63 143.45 709.57 143.56 709.56 143.59 709.46 143.84 709.54 143.88 709.86 143.99 710.19 144.2 710.44 144.45 710.61 144.69 710.78 145.13 710.85 145.56 710.85 145.71 710.86 146.23 710.87 146.51 710.87 146.52 710.96 146.79 711.01 146.92 711.61 147.73 711.86 148.78 712.23 150.3 712.24 150.46 712.28 150.93 712.3 151.12 712.33 151.54 712.4 151.75 712.37 151.87 712.32 152.01 712.06 152.29 711.89 152.47 711.68 152.75 711.64 152.87 711.55 153.12 711.54 153.17 711.48 153.53 711.46 153.9 711.3 154.35 710.96 154.55 710.95 154.56 710.57 154.68 710.31 154.88 710.26 155.07 710.19 155.38 710.33 156.21 710.31 156.6 710.25 156.64 710.14 157.06 710 157.24 709.07 157.63 708.94 157.9 708.63 158.14 709.05 158.29 710.06 158.42 710.9 158.78 711.46 159.2 711.62 159.32 712.23 159.93 712.28 159.98 712.71 160.56 712.99 161.09 713.08 161.25 713.14 161.42 713.34 161.98 713.49 163.21 713.53 163.46 713.68 164.08 713.7 164.75 713.58 165.18 713.57 165.22 713.48 165.69 713.52 165.77 713.7 165.98 713.71 166.39 713.44 167.37 713.42 167.51 713.41 167.6 713.43 168.05 713.44 168.33 713.31 168.62 713.23 168.69 712.75 169.07 712.69 169.16 712.67 169.19 712.59 169.32 712.59 169.36 712.69 170.42 713.26 171.36 714.26 172.63 714.56 173.01 714.59 173.1 715 174.71 715.1 175.54 714.85 176.4 714.3 177.18 713.33 178.14 712.87 178.94 712.51 180.23 712.28 180.66 711.42 181.61 711.18 182.07 710.98 182.92 711.18 185.04 710.85 185.78 710.05 186.15 709.07 186.29 708.19 186.3 707.59 186.7 707.35 187.58 707.31 188.47 707.34 188.87 707.58 189.05 707.78 189.44 707.76 189.84 707.34 190.02 707.1 190.21 707.31 190.62 708.78 192.24 708.9 192.42 708.81 192.89 708.7 193.26 708.77 193.6 709.2 193.97 708.2 195.12 707.9 195.72 707.66 197.42 707.05 198.97 706.92 199.78 706.79 200.18 706.2 200.95 706.07 201.47 706.11 201.9 706.3 202.67 706.33 203.02 706.15 204.48 705.82 205.85 704.55 206.2 704.32 206.88 703.51 208.07 702.2 208.91 701.46 209.63 701.41 210.61 701.54 211.67 701.38 212.68 700.94 213.15 700.46 213.25 699.92 213.21 699.35 213.29 698.79 213.55 698.52 213.83 698.31 214.15 696.44 215.92 695.63 216.38 694.6 216.62 692.34 216.87 691.31 217.31 690.7 218.18 691.14 218.23 691.49 218.39 691.76 218.68 692.11 219.66 692.48 219.95 693.49 220.34 693.99 220.71 694.4 221.19 695.05 222.26 698.12 225.56 698.59 226.34 695.51 226.49 691.31 226.7 688.38 226.84 688.67 227.72 688.03 228.31 686.06 229.17 684.61 230.42 683.31 231.82 682.15 233.77 681.9 235.62 681.97 236.17 681.95 236.17 678.73 236.62 653.01 236.69 647.59 235.09 643.53 229.6 641.31 228.03 637 229.36 633.17 231.18 620.89 232.69 619.71 233.78 618.59 234.46 614.35 233.38 607.77 232.69 605.55 233.4 604.94 234.58 605.17 235.66 606.79 237.82 606.4 240.56 605.53 243.6 605.97 245.42 605.81 247.06 604.75 249.19 604.13 251.53 604.32 253.29 605.48 254.23 606.45 254.82 606.88 255.79 607.22 256.98 613.5 260.8 612.26 262.7 612.01 263.89 609.95 266.65 608.11 268.22 595.12 275.44 589.38 282.74 588.02 287.63 586.25 290.19 585.21 291.23 584.12 290.58 580.78 286.17 577.27 284.32 574.6 283.31 573.61 282.66 570.1 280.98 567.41 275.81 564.32 258.36 562.68 255.73 560.91 253.85 550.35 255.89 542.14 255.07 540.2 252.52 537.63 240.61 537.97 233.63 543.17 220.66 545.99 216.47 562.37 206.92 566.37 203.69 566.93 201.04 565.51 198.44 553.46 190.86 548.86 189.87 538.45 192.06 522.03 198.45 505.13 202.07 511.78 195.33 517.11 191.33 521.8 189.05 530.54 186.36 531.8 185.55 533.55 182.22 540.74 172.14 541.37 169.25 538.67 166.72 528.86 160.21 527.73 157.9 526.4 152.9 525.62 145.15 526.23 140.65 527.9 138.08 529.01 134.22 528 130.97 526.32 130.16 525 130.13 524.19 130.31 Z" id="11"/>
<path d="M 585.21 291.23 586.25 290.19 588.02 287.63 589.38 282.74 595.12 275.44 608.11 268.22 609.95 266.65 612.01 263.89 612.26 262.7 613.5 260.8 607.22 256.98 606.88 255.79 606.45 254.82 605.48 254.23 604.32 253.29 604.13 251.53 604.75 249.19 605.81 247.06 605.97 245.42 605.53 243.6 606.4 240.56 606.79 237.82 605.17 235.66 604.94 234.58 605.55 233.4 607.77 232.69 614.35 233.38 618.59 234.46 619.71 233.78 620.89 232.69 633.17 231.18 637 229.36 641.31 228.03 643.53 229.6 647.59 235.09 653.01 236.69 678.73 236.62 681.95 236.17 681.97 236.17 682.42 239.75 683.6 246.07 683.51 247.69 682.24 250.09 681.9 251.44 682.93 254.46 685.54 256.55 688.88 257.71 692.11 257.91 695.15 257.78 696.75 257.87 698.14 258.17 698.78 258.48 699.47 259 699.84 259.6 699.8 259.66 699.48 260.12 698.87 260.3 696.91 260.41 696.18 260.82 696.06 261.41 696.2 262.1 696.28 262.81 696.05 263.64 695.62 264.11 694.26 264.82 693.07 265.7 691.5 267.49 689.49 269.78 687.24 272.32 685.24 274.59 684.99 275.17 685.05 278.44 685.65 281.08 686.83 284.47 688.23 288.47 689.67 292.6 691.2 296.95 692.87 301.73 694.69 307.46 696.1 311.88 696.01 315.25 695.46 318.54 695.21 319.23 694.13 320.41 693.81 321.05 693.95 321.3 694.3 321.47 694.54 321.7 694.19 322.61 694.27 323.04 694.48 323.44 694.64 323.89 694.71 324.78 694.4 327.34 694.49 329.34 695.07 333.16 694.54 336.22 694.64 337.18 695.26 339.18 695.75 343.05 697.12 343.55 701.29 344.07 708.22 344.94 708.29 344.95 709.04 347.35 708.46 352.33 705.81 357.78 703.86 363.84 703 374.64 703.17 377.79 705.27 385.81 705.2 387.1 704.55 387.96 703.15 388.44 697.53 388.61 694.14 386.1 687.63 378.1 682.54 374.87 678.71 373.97 677.77 373.32 676.31 371.99 674.06 371.65 643.05 379.22 641.74 379.75 625.25 359.11 619.32 355.32 572.27 337.16 572.86 336.35 575.02 331.61 579.27 326 580.79 322.4 586.29 316.13 586.97 314.2 587.34 312.18 588.29 309.87 588.38 307.6 586.72 305.28 585.46 302.97 585.4 301.72 584.18 300.56 583.55 299.6 583.25 298.69 583.96 297.21 585.07 295.68 585.41 294.4 585.21 291.23 Z" id="12"/>
<path d="M 641.74 379.75 643.05 379.22 674.06 371.65 676.31 371.99 677.77 373.32 678.71 373.97 682.54 374.87 687.63 378.1 694.14 386.1 697.53 388.61 703.15 388.44 704.55 387.96 705.2 387.1 705.27 385.81 703.17 377.79 703 374.64 703.86 363.84 705.81 357.78 708.46 352.33 709.04 347.35 708.29 344.95 715.3 345.82 723.4 346.84 728.17 347.43 730.44 347.71 731.51 348.07 732.32 348.63 733.8 350.24 734.08 351 733.8 352.77 733.82 353.6 734.22 354.44 735.32 356.01 735.67 356.94 735.74 358.15 735.84 358.58 736.57 359.89 737.07 361.24 737.27 362.07 737.28 362.88 736.98 363.75 736.19 365.09 736.37 365.57 736.53 368.4 736.28 368.52 736.18 368.81 736.12 369.55 736.17 369.6 736.28 369.82 735.57 370.46 732.16 374.01 726.93 379.45 722.2 384.38 718.84 387.87 714.36 392.49 712.03 394.92 708.61 398.45 702.22 405.05 702.21 405.07 699.07 408.26 696.68 410.68 700.02 414.12 702.2 416.37 704.9 419.19 708.02 422.43 711.25 425.81 714.65 429.34 715.46 429.92 716.33 430.22 717.06 430.68 717.44 431.72 717.36 432.53 716.87 433.98 716.87 434.79 717.26 435.63 718.58 436.9 719.11 437.61 719.24 438.07 719.35 439.1 719.56 439.58 720 440.01 720.38 440.13 720.76 440.17 721.21 440.38 721.63 440.97 721.85 441.67 722.17 442.27 722.87 442.53 723.28 442.82 723.4 443.17 723.25 443.55 722.87 443.9 722.58 444.17 722.46 444.42 722.55 444.67 722.87 444.88 723.41 445.1 723.87 445.42 724.23 445.84 725.98 449.37 726.22 450.17 726.32 450.86 726.53 451.48 727.72 452.65 728.91 454.93 730.11 456.22 734.37 459.62 736.09 461.58 738.71 463.72 740.02 465.05 740.78 465.42 743.26 466.03 745.23 467.03 746.48 467.38 749.23 467.58 750.55 467.83 753.99 469.19 759.45 470.16 760.59 470.69 761.07 471.19 761.43 471.74 761.85 472.24 762.52 472.58 763.21 472.78 763.64 473.02 763.93 473.44 764.2 474.16 764.8 475.05 767.41 477.54 768.25 478.01 775.01 476.8 775.93 477.29 776.13 478.74 775.52 482.98 774.86 487.68 775.63 490.54 776.71 494.51 776.96 496.97 777.3 500.31 777.51 502.38 777.91 506.19 778.13 508.35 777.88 510.07 775.7 514.42 776.51 515.29 776.72 515.74 776.64 516.41 776.45 517 776.2 517.46 775.79 517.74 775.14 517.78 776.93 519.19 777.55 519.5 777.87 519.49 778.44 519.19 778.73 519.15 779.07 519.25 780.04 519.73 781.34 519.98 782.46 519.92 784.87 519.5 785.94 519.35 788.11 518.75 789.21 518.7 789.9 518.77 790.43 518.75 792.69 518.11 793.11 518.12 793.62 518.29 794.69 519.16 795.16 519.42 796.18 519.75 796.56 519.97 797 520.4 797.59 521.17 799 523.95 798.29 523.7 797.39 523.71 796.57 524.02 796.12 524.69 795.97 525.11 795.53 525.67 795.35 526.08 795.29 526.57 795.5 531.23 795.87 532.01 796.39 532.68 796.74 533.35 796.6 534.1 795.98 534.61 794.3 534.85 793.62 535.17 793.32 535.82 792.99 541.82 792.56 543.47 791.63 544.28 791.21 544.27 790.89 544.12 790.59 543.93 790.24 543.78 789.84 543.75 788.64 543.99 787 543.95 785.39 543.73 781.65 543.64 778.42 543.57 775.6 543.51 775.15 543.63 774.84 544 774.41 544.71 774.13 544.9 773.82 545.05 773.47 545.17 772.19 545.43 771.84 545.4 771.38 545.2 770.93 545.12 770.58 545.32 770.25 545.62 769.91 545.87 769.06 546.13 762.14 546.79 761.75 546.89 761.43 547.12 761.09 547.66 760.85 547.85 760.42 547.95 759.55 547.92 759.16 547.95 758.82 548.09 758.29 548.44 757.95 548.61 757.14 548.9 756.78 549.1 756.52 549.42 756.44 549.78 756.57 550.05 756.73 550.28 756.76 550.54 756.34 551.26 755.04 552.4 754.74 552.92 754.97 553.86 755.37 554.62 755.41 555.21 754.51 555.64 752.96 555.44 751.12 554.86 749.57 554.67 748.87 555.68 748.72 556.69 748.34 557.12 746.63 557.38 745.78 557.61 745.02 557.95 743.53 558.84 738.54 560.11 737.55 560.81 736.94 561.93 736.59 563.21 736.21 565.72 735.88 567.95 735.49 570.52 734.97 573.96 734.53 576.84 734.3 577.57 733.67 578.26 732.96 578.41 732.16 578.39 731.28 578.58 730.41 579.67 730.62 581.19 731.07 582.82 730.95 584.25 730.69 584.57 730.09 585.12 729.84 585.52 729.7 586.11 729.53 588.52 729.28 592.06 728.99 596.17 728.74 599.66 727.43 603.1 727.17 602.5 727.08 601.81 726.36 601.34 726.23 601.08 726.03 600.95 725.63 601.2 725.51 601.43 725.45 602.09 725.32 602.35 725.55 602.54 725.96 602.98 726.19 603.17 725.31 603.08 724.64 602.83 723.96 602.83 723.06 603.45 724.04 603.73 724.44 603.94 724.78 604.3 724.56 604.7 723.91 605.45 723.72 605.89 723.72 606.11 723.67 606.27 723.35 606.55 722.75 606.84 720.5 607.45 721.1 607.83 720.13 609 713.18 606.83 710.76 606.36 710.78 605.69 710.15 604.66 704.38 602.79 697.6 601.76 691.86 600.53 687.96 600.09 687.28 599.75 687.92 599.22 686.92 597.92 686.79 597.36 686.78 595.04 686.64 594.68 685.14 593.33 684.5 592.99 683.77 592.9 683.03 592.97 680.2 593.76 679.49 594.11 679.1 594.68 678.45 595.39 678.12 595.84 678.11 596.11 678.23 596.37 678.4 597.21 678.6 597.32 678.88 597.35 679.34 597.55 679.69 597.55 679.87 597.66 680.03 597.92 680.47 598.34 680.02 598.28 680.01 598.37 681.21 598.93 681.09 599.46 680.61 599.36 679.28 598.85 677.6 598.22 676.76 597.79 674.97 597.82 673.78 596.94 674.16 596.28 674.34 596.12 673.74 595.87 672.99 595.77 671.49 595.83 670.35 596.04 670.11 596.12 669.74 596.49 669.74 596.74 669.84 596.94 670.7 597.48 670.42 598.24 669.3 598.24 668.47 597.74 668.01 597.6 666.6 597.41 666.28 597.19 665.82 596.65 665.17 596.33 663.65 596.42 661.55 596.71 659.33 596.79 657.8 597.82 656.06 597.28 654.33 595.78 652.47 595.34 647.69 595.61 645.82 595.6 642.68 594.94 640.71 593.13 639.2 592.38 636.86 592.78 631.98 593.49 630.82 593.65 630.64 592.67 631.72 592.24 631.75 591.62 631.86 590.96 631.09 590.61 630.75 590.21 629.29 587.95 628.61 587.34 628.04 586.68 627.76 585.83 627.09 585.08 625.84 584.65 624.93 583.81 624.71 582.32 623.37 580.34 615.54 574.1 614.07 573.26 613.5 573.04 613.34 572.3 613.54 570.97 614.29 569.95 614.78 569.71 615.6 567.9 615.84 566.37 615.82 563.82 616.32 562.74 616.88 562.08 616.81 560.73 617.59 559.88 618.25 558.28 617.9 556.7 616.47 555.18 615.7 552.77 616.72 550.87 618.05 549.46 618.01 548.04 616.69 546.96 616.02 546.01 617.18 544.23 618.35 541.09 616.17 537.14 613.03 533.9 612.17 531.09 612.3 528.43 612.14 526.89 611.15 523.42 611.14 519.32 615.9 502.73 616.44 498 616.17 483.69 620.93 478.19 622.21 474.45 620.75 472.35 617.35 470.08 615.81 467.99 618.2 466.87 622.9 465.47 632.52 460.54 634.39 459.26 635.6 458.1 635.67 456.57 635.24 454.96 634.02 452.74 633.97 449.35 633.37 446.6 633.97 443.94 637.43 439.31 638.7 435.22 638.82 431.61 637.39 422.88 635.74 419.26 633.87 418.18 632.9 417.29 633.27 413.85 641.74 379.75 Z" id="13"/>
<path d="M 250.5 396.25 253.16 395.11 257.41 394.49 259.8 395.49 266.17 395.78 271.01 397.29 272.55 398.25 273.27 398.84 273.27 400.96 274.38 403.95 276.46 405.74 278.98 410.2 281.34 410.98 290.47 411.58 296.14 413.17 298.91 415.85 301.13 420.29 304.05 424.31 306.71 426.75 310.01 427.81 313.67 430.74 332.22 461.34 333.19 465.06 339.24 480.15 340.27 481.65 342.11 482.29 343.48 483.02 346.6 486.23 352.2 497.34 357.66 503.3 362.95 507.73 371.21 513.01 369.43 513.94 368.87 514.11 366.94 514.04 364.89 513.57 364.22 513.55 361.52 513.79 361.07 513.77 360.23 514.09 360.05 514.08 359.81 514.32 359.14 515.48 355.94 514.22 355.09 513.42 355.02 512.57 355.41 512.04 356.1 511.77 356.96 511.7 357.74 511.72 358.63 511.64 359.15 511.23 358.78 510.26 358.12 509.76 356.44 509.19 355.82 508.72 355.49 508.23 354.83 506.88 354.55 506.46 351.44 503.62 350.08 502.66 348.57 502.08 341.2 500.64 339.65 499.95 334.77 495.93 333.25 495.02 331.55 494.39 329.58 494.15 326.71 494.47 326.06 494.28 325.28 493.84 323.8 493.94 322.21 494.28 319.62 494.7 318 494.48 314.42 493.81 313.93 493.7 313.72 493.44 313.67 493.04 313.53 492.73 313.32 492.53 312.03 492.37 310.26 491.9 309.38 491.05 308.43 489.64 307.44 489.08 307.12 490.24 306.27 490.3 305.46 487.83 304.65 486.8 304.01 485.3 302.46 483.05 301.75 482.45 300.9 481.67 300.69 480.84 301.6 478.62 301.54 477.52 300.69 476.3 299.25 475.14 298.74 474.61 297.28 472.61 295.92 471.34 295.61 470.91 293.08 465.41 292.74 464.12 292.7 458.85 292.18 457.06 291.25 455.55 290.2 454.45 288.86 453.73 287.12 453.37 285.45 453.28 284.62 453.09 284.27 452.65 283.96 451.83 282.01 449.67 281.68 448.89 281.43 447.76 281.58 446.74 282.44 446.29 283.25 446.54 284.06 447.14 284.74 447.89 285.14 448.57 285.58 448.24 285.53 447.94 285.34 447.59 285.4 447.14 285.69 446.84 286.53 446.18 286.81 445.75 286.95 444.85 286.85 443.89 286.44 443.3 285.68 443.47 285.33 442.27 285.06 441.85 284.55 441.47 284.3 441.52 283.92 441.69 283.58 441.79 283.43 441.61 283.38 440.91 283.3 440.56 283.14 440.34 282.16 440.19 278.93 440.36 278.18 440.48 277.08 441.05 275.93 440.93 275.02 440.22 274.65 439.07 274.58 438.07 274.69 437.57 275.06 437.07 275.35 436.51 275.62 435.82 276 435.52 276.63 436.1 276.81 434.42 276.91 434.13 276.51 434.01 276.25 433.77 275.75 432.97 276.05 431.96 276.03 430.35 275.82 428.71 275.49 427.59 274.95 426.73 274.15 425.77 273.52 425.51 273.5 426.74 273.25 426.29 272.08 424.74 269.9 423.17 269.55 422.64 269.26 421.93 268.61 421.13 267.26 419.94 264.82 419.09 264.44 418.66 264.18 417.84 263.58 417.05 262.46 415.97 261.36 414.58 259.48 411.59 258.49 410.33 257.71 409.73 256.01 408.83 254.4 407.38 254.25 407.2 254.13 406.7 254.09 405.94 253.94 405.5 254.59 405.44 254.75 405.19 254.5 404.9 253.94 404.66 254.39 403.26 253.44 400.92 253.69 399.84 253.1 399.44 252.45 398.69 251.91 397.84 251.69 397.17 251.44 396.73 250.84 396.37 250.5 396.25 Z M 261.05 434.94 261.79 435.23 262.24 435.46 262.05 436.17 262.17 436.89 261.9 437.52 261.49 437.57 261.08 437.25 260.67 436.34 260.41 435.52 260.12 435.04 260.6 434.78 261.05 434.94 Z" fill-rule="evenodd" id="14"/>
<path d="M 614.78 569.71 614.29 569.95 613.54 570.97 613.34 572.3 613.5 573.04 614.07 573.26 615.54 574.1 623.37 580.34 624.71 582.32 624.93 583.81 625.84 584.65 627.09 585.08 627.76 585.83 628.04 586.68 628.61 587.34 629.29 587.95 630.75 590.21 631.09 590.61 631.86 590.96 631.75 591.62 631.72 592.24 630.64 592.67 630.82 593.65 628.51 593.98 626.16 594.99 625.28 595.16 624.93 595.1 624.63 594.83 624.33 594.66 623.97 594.73 623.59 594.9 623.21 594.99 622.26 594.94 621.44 594.79 620.74 594.52 620.2 594.11 618.29 591.35 617.28 590.24 615.66 589.57 614.22 589.6 613.84 589.43 613.58 589.04 613.44 588.63 613.21 588.3 612.74 588.16 609.2 588.16 601.69 586.92 599.12 587.29 596.9 587.16 596.13 586.82 596.42 586.16 595.21 586.23 593.88 586.47 593.33 586.74 592.37 587.45 591.75 587.6 591.46 587.49 591.32 587.33 591.12 587.33 590.64 587.74 590.31 587.95 589.88 588.08 589.52 588.03 589.37 587.74 589.12 587.84 587.67 588.75 586.15 588.97 584.8 588.73 583.49 588.36 582.12 588.16 581.01 587.7 580.1 586.58 578.87 584.21 577.58 582.81 576.02 582.47 574.31 582.87 572.63 583.65 571.22 584.69 570.32 585.19 569.67 585.19 569.84 583.37 570 582.89 570.11 582.69 570.13 582.54 570.07 582.21 569.65 581.27 569 580.76 568.14 580.56 567.1 580.52 566.17 580.61 563.88 581.08 563.38 581 562.52 580.61 562.04 580.52 561.56 580.56 560.74 580.76 560.32 580.8 559.29 580.73 556.47 579.93 556.78 579.67 551.25 579.34 550.64 579.05 550.35 578.4 550.11 576.38 549.11 574.29 548.6 572.61 548.25 571.82 547.84 571.49 547.77 571.33 546.85 570.33 546.67 570.3 546.14 570.38 545.97 570.33 545.9 570.16 545.79 569.68 545.23 568.19 545.06 567.5 544.66 566.7 544.57 566.21 544.83 565.35 546.12 564.09 546.57 563.26 546 561.94 543.27 559.23 543.49 558.13 543.18 557.87 542.94 556 542.65 555.07 542.19 554.33 541.4 553.64 541.2 553.33 541.09 552.96 540.94 552.02 540.92 551.64 541.63 546.48 541.49 544.56 538.8 534.96 538.23 534.22 536.83 533.13 536.33 532.48 536.38 531.81 535.11 531.05 534.69 530.66 535.29 530.69 535.74 530.53 536.16 530.3 536.66 530.09 536.31 529.81 536.26 529.42 536.4 529.02 536.66 528.68 535.39 529.17 534.97 529.24 534.59 529.16 534.35 528.96 534.17 528.77 533.97 528.68 533.76 528.54 533.54 528.26 533.26 528.1 532.45 528.45 532.21 528.31 532.1 527.97 532.12 527.55 531.59 527.66 531.31 527.44 531.32 527.14 531.71 526.99 531.91 526.84 532.64 526.14 533 525.88 533 525.58 531.79 525.43 530.8 524.83 530.13 523.97 529.86 523.04 529.38 523.46 528.86 523.62 527.73 523.63 527.12 523.45 526.73 523.05 526.42 522.65 526.03 522.47 521.74 522.43 520.8 522.16 520.52 522.47 519.52 521.98 518.28 521.75 515.7 521.63 514.47 521.41 512.31 520.64 511.02 520.47 508.47 520.6 507.16 520.9 506.21 521.48 505.32 521.86 502.64 521.97 501.54 522.16 501.21 522.37 500.52 522.97 500.38 523.18 500.29 523.61 500.07 523.75 499.75 523.81 499.4 524.02 498.68 524.56 495.9 526.06 494.91 526.82 494.89 526.99 494.67 527.12 493.92 527.7 493.47 527.83 491.63 528.03 489.92 528.4 489.48 528.44 488.09 528.4 487.64 528.48 487.02 528.87 486.66 528.96 485.12 528.96 483.81 528.69 483.4 528.68 482.62 528.99 481.23 530.14 480.71 530.4 480.25 530.72 478.01 532.94 478.61 532.76 478.86 532.64 479.17 532.37 479.33 533.39 479.08 534.62 478.59 535.79 478.01 536.63 476.66 537.71 475.1 538.41 473.37 538.72 471.52 538.63 468.19 537.6 466.29 537.38 464.72 538.04 464.23 538.83 464 539.57 463.6 540.11 462.6 540.33 461.79 540.41 459.98 540.89 459.36 541.15 456.66 543.31 456.2 543.57 452.23 546.46 447.74 548.81 447.45 549.03 447.19 549.31 446.89 549.54 446.45 549.64 445.94 549.55 445.24 549.18 444.74 549.1 441.2 549.38 439.38 549.12 438.68 548.18 438.17 546.99 436.96 545.97 435.11 545.64 431.35 545.77 429.85 545.12 429.11 544.06 428.5 542.74 427.72 541.47 426.49 540.58 425.61 540.43 424.79 540.55 423.99 540.75 420.84 540.95 419.97 540.86 417.13 540.12 416.42 540.02 415.98 539.89 415.18 539.33 414.84 539.17 414.41 539.16 413.55 539.32 410.84 540.46 408.94 540.69 407.26 541.11 406.35 541.15 404.5 540.61 403.49 540.54 402.52 541 402.02 540.85 399.86 539.17 396.75 537.53 392.74 534.82 392.15 534.17 391.91 533.36 391.81 531.4 391.48 530.58 390.78 529.81 389.45 529.07 375.4 524.8 374.49 524.73 373.6 524.5 373.05 523.95 372.61 523.3 372.1 522.73 369.63 522.18 369.25 521.77 368.89 520.87 368.05 520.41 366.15 519.91 362.82 517.24 361.35 516.35 359.14 515.48 359.81 514.32 360.05 514.08 360.23 514.09 361.07 513.77 361.52 513.79 364.22 513.55 364.89 513.57 366.94 514.04 368.87 514.11 369.43 513.94 371.21 513.01 372.35 514.96 375.37 517.52 384.59 518.25 386.12 518.79 389.61 521.34 390.31 521.64 391.03 521.73 394.04 521.04 395.11 521.04 407.75 523.04 412.06 521 413.18 519.39 412.71 518.18 412.71 517.72 413.59 515.46 414.2 512.18 416.03 510.19 420.3 508.87 431.33 507.98 433.84 508.26 435.8 508.87 437.85 508.09 441.62 507.32 452.64 508.7 457.8 507.3 460.2 505.28 461.56 501.61 463.16 499.35 468.81 496.66 472.59 495.79 474.98 495.91 476.22 495.42 477.17 494.83 477.88 493.82 478.13 491.48 476.15 488.62 472.66 486.09 472.46 484.76 472.66 483.03 474.75 476.3 475.24 471.66 474.14 469.05 461.71 458.46 461.5 456.51 462.85 455.64 462.84 454.48 460.45 448.19 463.96 448.41 471.43 450.27 475.13 452.81 476.94 454.88 478.75 455.99 480.6 456.8 482.72 456.32 490.99 450.82 495.85 448.82 497.08 448.69 498.25 450.19 499.04 465.93 498.01 468.99 498.88 473.03 502.57 477.23 506.12 480.11 510.37 482.38 515.29 483.04 517.93 482.63 522.8 480.51 527.27 476.76 528.54 475.39 530.44 474.07 532.68 474.14 537 476.01 537.32 476.67 536.95 480.9 538.46 487.32 539.06 488.2 539.88 488.81 541.15 488.96 543.3 489.99 544.95 491.88 545.92 493.52 547.8 495.34 549.67 497.86 549.94 499.94 548.8 500.79 548.07 502.06 549.01 503.27 550.12 503.77 551.24 505.8 552.5 509.04 553.79 524.5 554.63 526.9 567.41 532.95 570.2 534.79 571.46 535.13 573.4 533.5 574.4 532.27 576.09 531.24 578.81 531.3 581.65 532.83 584.75 535.15 587.17 537.66 588.36 539.95 588.01 540.74 585.41 539.32 584.52 539.28 584.48 540.11 585.48 542.76 585.53 543.81 585.3 544.5 584.55 545.33 583.98 546.6 583.02 554.67 583.25 555.87 583.26 557.06 582.77 559.37 581.92 560.3 581.99 561.14 587.48 560.79 590.87 561.34 593.1 561.15 594.53 560.55 595.99 560.85 597.57 561.49 600.15 561.85 600.93 562.3 600.87 562.74 600.47 563.5 600.57 564.3 600.99 565.22 601.11 566.51 601.81 567.62 603.51 567.97 605.57 568.03 607.34 567.84 608.56 566.68 609.77 566.41 611.37 566.98 612.5 566.97 613.09 567.42 614.78 569.71 Z M 435.51 557.33 435.8 557.45 436.03 557.62 436.23 557.84 436.38 558.13 435.51 559.72 435.29 559.76 434.81 559.62 434.32 559.4 434.1 559.15 434.05 558.61 433.95 558.2 433.93 557.81 434.1 557.33 434.36 557.01 434.71 556.85 435.1 556.93 435.51 557.33 Z M 415.28 549.94 412.23 549.79 411.91 549.77 410.58 549.2 409.74 547.97 410.15 547.39 410.76 546.98 411.5 546.78 412.3 546.82 413 547.03 414.53 547.17 415.12 547.38 415.2 547.56 415.24 547.65 415.24 547.65 415.22 548.03 415.23 548.07 415.26 548.36 415.27 548.36 415.56 548.51 415.74 548.65 415.84 548.73 415.88 548.97 415.92 549.23 415.83 549.47 415.74 549.72 415.28 549.94 Z M 385.53 537.07 384.78 537.45 383.98 537.45 381.63 537.09 380.9 536.81 380.82 536.76 380.26 536.44 378.97 535.47 378.59 535.09 378.76 534.91 379.05 534.85 379.38 534.74 379.78 534.72 383.27 535.68 386.37 535.88 387.33 536.22 387.87 536.66 388.21 536.94 387.61 537.08 386.02 536.96 385.53 537.07 Z M 509.75 535.65 509.94 534.54 510.53 533.79 511.58 533.36 513.14 533.22 513.34 534.5 512.1 535.47 510.52 535.93 509.75 535.65 Z M 505.21 528.68 506.02 528.85 507.08 529.27 507.74 529.72 507.98 529.88 508.31 530.66 507.65 530.99 506.98 531.33 504.43 531.92 503.51 532.65 502.58 534.51 502.1 535.22 500.39 536.78 500.12 537.34 499.77 537.67 498.2 538.38 497.84 538.76 497.49 538.96 495.45 540.72 494.24 541.35 493.29 540.99 492.39 540.17 491.33 539.43 488.57 540.7 487.8 541.29 487.03 541.68 486.15 541.67 484.27 541.43 483.43 541.59 482.55 541.96 480.32 543.39 478.01 544.27 476.61 545.2 475.88 545.54 473.33 545.8 471.52 546.25 470.75 546.68 470.37 546.82 470.37 546.82 470.24 546.8 470.02 546.75 469.55 546.61 469.13 546.61 468.95 546.97 468.76 547.25 468.31 547.47 467.81 547.61 467.43 547.66 467.42 547.66 467.25 547.55 467.1 547.46 466.89 546.99 466.69 545.97 466.97 545.24 467.05 544.77 466.83 544.56 466.41 543.27 466.86 542.84 468.81 543.46 469.26 543.27 469.52 543.34 469.64 543.37 469.64 543.37 471.83 542.27 477.35 540.66 478.15 540.58 478.67 540.4 478.82 540.35 478.83 540.35 480.74 539.3 481.56 538.7 484.27 537.76 484.69 537.73 485.55 537.79 485.96 537.76 486.27 537.64 486.69 537.32 487.09 537.19 486.97 536.92 486.79 536.63 487.42 535.99 487.57 535.21 487.38 533.36 487.05 532.66 486.35 532.05 485.66 531.57 485.38 531.24 486.42 530.7 492.2 532.65 493.77 532.32 498.12 529.81 503.59 528.71 505.21 528.68 Z M 515.98 524.42 516.42 524.68 516.9 524.84 517.29 525.13 517.31 525.21 517.45 525.73 517.29 526.25 516.9 526.64 516.61 526.77 516.34 526.89 515.7 526.99 514.39 526.54 514.49 525.5 515.25 524.56 515.98 524.42 Z M 436.35 573.17 436.56 573.53 436.62 574.27 436.21 574.55 435.65 574.43 434.99 574.15 434.83 573.69 435.37 573.43 436.35 573.17 Z M 492.06 542.05 492.38 542.49 492.46 543.46 491.87 544.35 491.03 544.79 490.36 544.46 490.45 543.51 490.99 542.59 491.66 542.12 492.06 542.05 Z M 398.85 541.66 399.34 541.87 399.67 542.49 399.13 542.97 398.41 542.88 397.68 542.55 397.27 542.04 397.6 541.59 398.43 541.57 398.85 541.66 Z M 457.1 574.85 457.15 575.25 457.34 575.72 457.01 575.98 456.67 576.01 456.44 576.14 456.04 575.8 455.85 575.93 455.88 575.68 455.74 575.42 455.59 575.02 456.19 574.73 456.9 574.56 457.1 574.85 Z" fill-rule="evenodd" id="15"/>
<path d="M 261 129.16 263.14 128.04 265.67 124.41 266.58 120.98 268.24 119.66 270.4 118.74 271.81 117.17 272.2 116.12 272.23 115.98 274.2 117.05 275.06 117.21 275.64 117.42 276.86 118.48 277.47 118.91 283.99 121.75 289.94 125.14 293.41 126.41 304.95 128.24 312.32 129.96 319.96 131.07 327.32 132.78 334.97 131.96 341.77 129.96 348.88 128.55 356.24 127.42 363.3 126.27 370.37 124.57 377.2 122.88 390.92 120.42 392.77 120.17 409.04 119.43 412.01 118.86 414.02 117.5 413.93 119.07 411.59 119.72 408.65 120.01 406.76 120.49 406.24 120.69 405.65 120.62 404.54 120.34 403.92 120.42 402.78 120.78 402.14 120.88 399.72 120.62 397.6 120.62 397.92 121.09 398.5 121.24 399.86 121.19 399.03 121.41 398.71 121.45 399.71 122.51 401.4 123.12 401.58 123.13 401.63 123.67 402.09 124.7 403.54 126.7 412.66 131.13 417.04 134.76 418.72 136.83 414.56 137.83 411.12 139.46 408.01 141.97 406.55 144.27 405.64 146.77 404.98 150.1 403.35 151.62 399.11 154.67 398.15 155.81 397.64 156.85 396.67 157.96 394.87 159.25 391.95 160.53 388.79 161.36 386.71 161.59 385.38 160.99 383.23 161.58 380.61 162.81 378.65 163.25 374.46 163.63 373.85 163.84 370.14 161.76 368.34 161.42 367.01 162.07 364.83 162.31 361.68 161.78 356.95 159.7 353.24 159.14 350.29 158.14 347.55 157.85 343.76 160.28 338.4 165.54 335.55 166.49 332.29 166.33 330.26 165.74 329.02 165.14 327.55 163.75 325.15 160.11 320.93 156.41 315.3 154.63 308.97 154.19 304.5 152.06 301.81 149.5 295.03 148.29 293.3 147.68 291.73 146.51 290.98 145.63 288.35 144.79 281.52 143.69 281.48 142.87 281 141.75 274.3 137.63 272.02 136.63 261 129.16 Z" id="16"/>
<path d="M 490.95 100.89 497.2 107.53 500.14 109.18 501.77 108.96 503.78 109.63 503.35 110.58 500.93 111.15 499.87 111.83 499.61 112.44 499.88 112.77 500.14 113.21 500.35 114.31 500.14 117.11 499.36 119.58 499.21 120.41 499.98 121.71 504.88 126.12 509.57 129.36 511.9 129.99 515.83 130.53 517.89 131.17 524.19 130.31 525 130.13 526.32 130.16 528 130.97 529.01 134.22 527.9 138.08 526.23 140.65 525.62 145.15 526.4 152.9 527.73 157.9 528.86 160.21 538.67 166.72 541.37 169.25 540.74 172.14 533.55 182.22 531.8 185.55 530.54 186.36 521.8 189.05 517.11 191.33 511.78 195.33 505.13 202.07 490.27 222.69 485.73 224.63 475.13 224.43 471.33 225.01 470.6 225.29 470.6 225.39 470.22 224.98 469.21 224.26 466.94 223.64 368.29 226.09 366.13 225.81 348.54 221.02 345.72 220.65 334.39 221.25 330.35 220.7 322.36 217.12 323.73 215.5 325.55 211.97 326.67 208.36 326.78 204.99 326.22 203.34 326.38 201.56 327.64 198.25 329.76 195.56 330.28 193.01 328.41 190.23 323.74 185.16 323.43 183.4 323.68 181.52 324.46 179.03 325.02 175.24 325.71 174.64 326.48 174.93 326.98 175.33 327.88 175.59 330.34 175.7 332.62 177.32 340.16 181.07 343.18 181.92 346.33 181.98 355.64 184.19 358.98 184.3 363.69 183.03 367.8 181.24 374.37 176.35 375.7 172.64 375.16 168.48 373.85 163.84 374.46 163.63 378.65 163.25 380.61 162.81 383.23 161.58 385.38 160.99 386.71 161.59 388.79 161.36 391.95 160.53 394.87 159.25 396.67 157.96 397.64 156.85 398.15 155.81 399.11 154.67 403.35 151.62 404.98 150.1 405.64 146.77 406.55 144.27 408.01 141.97 411.12 139.46 414.56 137.83 418.72 136.83 426.82 136.72 430.05 137.13 432.93 136.61 438.76 134.4 441.31 132.16 448.32 127.75 455.55 124.42 459.07 124.09 473.84 125.71 475.94 124.92 477.32 122.07 478.13 117.54 481.55 111.47 489.24 102.01 490.95 100.89 Z" id="17"/>
<path d="M 138.13 135.88 132.41 125.59 132.17 124.25 132.15 122.24 132.94 120.95 139.21 115.85 140.95 113.54 142.18 112.82 144.91 111.78 147.17 109.83 148.59 109.14 150.05 108.65 163.05 107.45 166.98 107.93 169.66 107.57 179.55 108.39 182.63 107.43 184.07 106.51 184.55 106.29 185.76 106.02 187.46 106.52 190.55 109.14 191.82 108.92 192.38 108.19 192.38 107.49 192.88 106.78 193.68 106.53 194.86 107.06 196.35 107.21 197.98 106.32 199.43 105.97 202.21 107.16 208.45 110.33 213.03 114.2 214.79 116.47 217.23 123.26 213.86 124.19 209.37 126.59 207.68 129.72 208.55 132.34 210.76 134.56 212.1 137.25 213.47 138.93 215.52 139.76 216.77 139.82 217.58 140.17 218.36 140.86 219.43 141.35 220.2 142.48 220.88 144.52 222.18 146.25 223.13 147.96 223.78 152.35 222.83 153.48 215.29 155.12 211.12 157.03 208.59 159.36 208.37 160.99 208.43 161.46 204.65 160.04 201.95 159.89 198.2 160.73 195.89 162.11 194.39 162.36 192.62 162.42 191.33 162.65 190.47 163.12 190.59 164.4 195.83 168.24 198.91 171.92 198.94 172.65 197.42 174.33 194.29 175.22 190.82 174.52 187.19 172.92 178.32 172.67 176.46 171.73 175.06 169.67 174.7 168.78 173.88 167.65 173.12 167.07 161.75 161.45 161.18 160.35 161.86 158.86 163.49 157.48 164.4 154.45 164.4 150.25 163.62 147.92 162.9 147.84 162.73 147.79 162.68 147.48 162.82 147.21 162.99 146.95 163.04 146.66 162.79 145.66 162.87 145.3 163.3 144.97 162.91 144.51 162.44 143.7 162.05 142.78 161.89 141.98 161.6 141.55 160.3 140.38 160.16 140.19 139.33 136.85 138.13 135.88 Z" id="18"/>
<path d="M 217.23 123.26 221.14 124.77 221.22 125.47 221.74 126.78 224.08 129.16 226.59 131.06 232.27 132.43 234.38 132.36 235.65 132.53 236.54 133.03 240.36 133.64 242.41 133.35 250.18 129.96 251.03 129.72 251.94 129.33 255.38 128.72 261 129.16 272.02 136.63 274.3 137.63 281 141.75 281.48 142.87 281.52 143.69 271.69 142.85 267 143.16 265.8 144.62 267.91 146.96 269.43 148.02 272.37 148.72 274.28 150.05 272.98 153.63 270.99 156.96 270.5 158.48 269.08 159.58 260.71 162.9 258.44 164.68 257.93 166.29 258.27 167.57 259.31 169.47 260.21 170.67 258.98 170.52 256.52 170.64 249.1 173.27 247.19 173.36 244.92 173.89 242.78 174.76 235.5 176.57 233.77 177.61 232.53 179.94 225.28 180.1 224.26 179.52 218.39 178.31 217.23 178.56 211.94 177.83 209.11 176.07 210.37 174.51 208.8 172.9 205.35 171.29 200.83 171.23 198.91 171.92 195.83 168.24 190.59 164.4 190.47 163.12 191.33 162.65 192.62 162.42 194.39 162.36 195.89 162.11 198.2 160.73 201.95 159.89 204.65 160.04 208.43 161.46 208.37 160.99 208.59 159.36 211.12 157.03 215.29 155.12 222.83 153.48 223.78 152.35 223.13 147.96 222.18 146.25 220.88 144.52 220.2 142.48 219.43 141.35 218.36 140.86 217.58 140.17 216.77 139.82 215.52 139.76 213.47 138.93 212.1 137.25 210.76 134.56 208.55 132.34 207.68 129.72 209.37 126.59 213.86 124.19 217.23 123.26 Z" id="19"/>
<path d="M 225.28 180.1 232.53 179.94 233.77 177.61 235.5 176.57 242.78 174.76 244.92 173.89 247.19 173.36 249.1 173.27 256.52 170.64 258.98 170.52 260.21 170.67 261.99 171.01 266.16 171.22 270.22 172.19 272.6 173.94 273.64 174.43 274.07 173.82 274.07 173.13 272.46 171.33 272.99 170.21 275.32 170.23 276.92 171.77 276.9 174.06 277.2 175.44 278.37 175.25 279.52 173.34 281.42 173.2 283.34 175.14 284.4 176.82 284.42 179.71 280.85 189.16 279.68 190.51 278.3 193.73 277.57 200.08 277.08 201.66 276.32 202.03 272.03 203.23 266.91 203.89 264.45 205.22 260.86 206.07 257.13 205.66 254.77 207.22 254.72 209.92 255.58 210.92 255.14 211.75 251.28 213.53 250.89 215.67 253.12 217.82 254.95 219.18 256.45 219.75 258.1 219.63 259.33 220.24 260.54 221.42 261.17 222.63 260.99 224.33 262 226.38 263.91 228.35 266.64 230.23 277.31 231.05 281.57 232.99 291.11 235.14 290.62 237.61 286.67 245.54 285.57 247.17 283.2 247.18 280.6 247.87 278.27 249.5 275.69 250.83 258.46 254.61 251.9 257.86 248.47 260.24 248.11 259.91 245.47 258.71 245.17 257.53 245.24 256.33 244.34 255.56 243.01 254.69 242.35 253.71 241.43 253.25 239.98 254.11 239.17 255.45 238.9 256.52 237.93 257.06 236.65 256.22 235.23 254.97 232.13 253.67 230.78 252.71 230.39 251.74 230.83 250.52 231.49 249.33 231.45 248.23 230.32 246.63 228.51 244.8 226.24 244.2 224.16 245.19 221.88 245.83 220.05 246.71 218.64 250.31 217.85 251 214.55 252.74 213.41 252.39 208.74 252.05 206.01 251.22 203.91 250.2 203.37 249.33 203.59 248.34 203.93 247.42 205.58 244.25 205.44 243.3 204.92 242.19 205.22 240.84 205.87 239.97 210.18 236.75 210.9 235.92 211.03 234.95 210.27 232.28 210.04 230.02 209.39 227.77 206.45 223 206.12 218.64 205.41 216.03 203.33 215.35 202.73 214.19 204.18 213.72 208.43 214.08 210.34 214.84 211.27 214.66 210.57 211.47 210.72 208.57 211.81 207.09 212.31 205.63 211.84 203.23 212.87 201.94 220.4 201.61 223.97 202.12 224.96 203.31 224.09 204.84 224.72 206.72 226.34 208.31 227.69 209.33 229.49 209.47 230.51 207.8 229.61 203.35 228.57 201.29 226.58 199.36 224.46 198.53 220.03 197.53 218.17 196.75 217.22 195.99 217.11 195.4 217.86 194.71 219.11 194.6 221.49 193.99 223.49 192.08 222.96 190.18 221.12 187.67 220.34 184.89 221.64 183.56 222.76 183.48 222.85 184.26 222.81 185.3 223.61 186.25 225.03 186.46 226.42 185.2 226.58 183.61 225.6 182.56 225.25 181.09 225.28 180.1 Z" id="20"/>
<path d="M 237.5 301.24 238.6 298.16 239.49 297.01 237.78 295.05 233.63 293.72 230.04 293.93 227.81 292.92 225.81 288.75 225.78 288.34 226.03 287.35 226.59 286.51 227.53 286 230.83 285.08 232.72 283.88 233.47 278.98 235.84 276.63 241.99 275.18 242.98 274.68 243.06 273.92 243.3 272.95 247.47 265.91 247.37 264.13 247.54 261.89 248.47 260.24 251.9 257.86 258.46 254.61 275.69 250.83 278.27 249.5 280.6 247.87 283.2 247.18 285.57 247.17 286.67 245.54 290.62 237.61 291.11 235.14 289.94 234.62 289.07 232.84 290.31 224.73 290.8 223.52 292.35 222.23 296.29 220.82 305.21 219.97 308.41 220.1 322.36 217.12 330.35 220.7 334.39 221.25 345.72 220.65 348.54 221.02 366.13 225.81 368.29 226.09 466.94 223.64 469.21 224.26 470.22 224.98 470.6 225.39 471.07 253.34 469.97 256.27 466.44 261.39 464.07 262.77 460.85 263.06 456.75 264.9 454.53 267.21 452.65 274.12 451.3 277.2 449.71 279.72 447.43 282.05 443.06 284.15 399.32 296.84 386.23 294.31 383.21 294.4 379.22 295.71 376.74 297.04 374.91 298.34 372.23 299.62 369.26 300.36 367.61 301.29 367.3 302.66 368.49 315.37 368.11 318.02 366.38 323.83 365.59 328.84 365.15 329.86 365.27 332.73 367.07 338.81 367 338.81 352.89 342.29 349.82 342.3 340.62 340.56 338.69 339.08 338.3 335.26 337.67 334.14 336.96 334.05 331.32 336.69 330.52 337.61 329.34 338.06 323.78 341.27 320.68 341.65 316.66 340.83 316.51 342.06 317.49 344 318.75 345.11 320.38 345.64 322.19 345.93 324.58 347.48 325.77 350.27 324.77 353.09 323.93 357.31 320.43 364.79 320.11 368.4 320.53 370.84 320.55 372.17 319.39 372.5 316.25 372.91 315.41 372.2 309.62 368.62 305.17 364.55 302.88 359.48 302.59 356.72 303.01 355.3 303.12 352.08 299.34 341.4 298.42 336.7 298.67 334.48 300.08 333.63 301.82 332.98 301.73 331.72 300.48 330.37 299.67 329.1 299.84 327.82 301.49 326.85 302.8 324.66 302.04 320.36 299.88 317.03 295.08 313.96 292.9 312.09 287.65 308.64 287.23 305.4 287.47 302.4 286.57 301.2 286.22 300 285.59 299.4 284.5 299.17 284.09 298.16 283.69 296.28 282.07 295.1 280.29 295.36 279.37 296.19 277.67 296.69 272.23 296.83 270.61 297.07 266 299.61 264.12 299.95 262.86 299.59 260.82 299.97 258.13 299.69 255.61 297.92 253.08 296.75 251.24 297.08 249.95 297.63 248.46 297.84 245.64 297.54 237.5 301.24 Z" id="21"/>
<path d="M 259.05 343.33 260.52 340.91 262.77 338.5 262.89 336.58 261.68 334.29 258.17 331.06 257.37 329.86 255.31 328.27 254.05 326.56 252.8 324.08 251.68 320.63 251.13 319.53 250.44 318.95 248.49 318.42 247.89 317.83 246.86 317.2 245.86 316.09 244.56 313.31 238.33 304.96 237.66 302.46 237.5 301.24 245.64 297.54 248.46 297.84 249.95 297.63 251.24 297.08 253.08 296.75 255.61 297.92 258.13 299.69 260.82 299.97 262.86 299.59 264.12 299.95 266 299.61 270.61 297.07 272.23 296.83 277.67 296.69 279.37 296.19 280.29 295.36 282.07 295.1 283.69 296.28 284.09 298.16 284.5 299.17 285.59 299.4 286.22 300 286.57 301.2 287.47 302.4 287.23 305.4 287.65 308.64 292.9 312.09 295.08 313.96 299.88 317.03 302.04 320.36 302.8 324.66 301.49 326.85 299.84 327.82 299.67 329.1 300.48 330.37 301.73 331.72 301.82 332.98 300.08 333.63 298.67 334.48 298.42 336.7 299.34 341.4 303.12 352.08 303.01 355.3 302.59 356.72 301.18 356.63 298.5 357.07 296.45 358.62 294.21 359.62 289.46 359.08 288.05 359.1 272.68 347.39 271.4 347.25 269.23 347.36 261.98 344.87 259.05 343.33 Z" id="22"/>
<path d="M 266.17 395.78 265.47 389.29 264.69 386.54 263.37 385.25 263.08 383.1 265.47 378.26 264.76 376.08 262.43 374.62 258.49 372.81 255.26 370.06 253.59 368.22 246.54 369.02 246.26 368.01 246.68 366.66 246.86 365.42 247.07 364.8 246.95 363.13 245.06 357.29 245.03 354.87 245.71 353.53 246.75 352.34 248.16 351.42 251.35 350.27 256.3 346.48 259.05 343.33 261.98 344.87 269.23 347.36 271.4 347.25 272.68 347.39 288.05 359.1 289.46 359.08 294.21 359.62 296.45 358.62 298.5 357.07 301.18 356.63 302.59 356.72 302.88 359.48 305.17 364.55 309.62 368.62 315.41 372.2 316.25 372.91 317.48 378.07 317.49 380.04 317.27 380.45 316.21 381.36 314.17 382.4 311.88 382.94 307.5 381.95 305.95 381.15 305.04 380.14 303.98 379.94 299.24 377.95 295.88 377.23 295.26 377.85 295.94 381.33 297.24 384.48 297.32 385.42 296.76 386.3 297.06 387.21 298.07 388.67 298.02 390.8 297.15 392.4 286.11 397.97 284.36 398.21 277.42 397.85 273.27 398.74 273.27 398.84 272.55 398.25 271.01 397.29 266.17 395.78 Z" id="23"/>
<path d="M 371.21 513.01 362.95 507.73 357.66 503.3 352.2 497.34 346.6 486.23 343.48 483.02 342.11 482.29 340.27 481.65 339.24 480.15 333.19 465.06 332.22 461.34 313.67 430.74 310.01 427.81 306.71 426.75 304.05 424.31 301.13 420.29 298.91 415.85 296.14 413.17 290.47 411.58 281.34 410.98 278.98 410.2 276.46 405.74 274.38 403.95 273.27 400.96 273.27 398.84 273.27 398.74 277.42 397.85 284.36 398.21 286.11 397.97 297.15 392.4 298.02 390.8 298.07 388.67 297.06 387.21 296.76 386.3 297.32 385.42 297.24 384.48 295.94 381.33 295.26 377.85 295.88 377.23 299.24 377.95 303.98 379.94 305.04 380.14 305.95 381.15 307.5 381.95 311.88 382.94 314.17 382.4 316.21 381.36 317.27 380.45 317.49 380.04 317.48 378.07 316.25 372.91 319.39 372.5 320.55 372.17 320.53 370.84 320.11 368.4 320.43 364.79 323.93 357.31 324.77 353.09 325.77 350.27 324.58 347.48 322.19 345.93 320.38 345.64 318.75 345.11 317.49 344 316.51 342.06 316.66 340.83 320.68 341.65 323.78 341.27 329.34 338.06 330.52 337.61 331.32 336.69 336.96 334.05 337.67 334.14 338.3 335.26 338.69 339.08 340.62 340.56 349.82 342.3 352.89 342.29 367 338.81 367.07 338.81 377.59 342.26 383.85 347.17 389.16 352.69 398.81 373.62 405.68 384.2 412.27 391.19 414.07 393.95 415.54 403 416.72 405.47 423.15 409.66 431.54 413.37 431.53 414.18 432.66 417.45 436.02 423.52 436.49 425.1 437.39 426.49 438.37 427.36 440.22 428.39 449.69 429.15 452.1 430.05 460.45 448.19 462.84 454.48 462.85 455.64 461.5 456.51 461.71 458.46 474.14 469.05 475.24 471.66 474.75 476.3 472.66 483.03 472.46 484.76 472.66 486.09 476.15 488.62 478.13 491.48 477.88 493.82 477.17 494.83 476.22 495.42 474.98 495.91 472.59 495.79 468.81 496.66 463.16 499.35 461.56 501.61 460.2 505.28 457.8 507.3 452.64 508.7 441.62 507.32 437.85 508.09 435.8 508.87 433.84 508.26 431.33 507.98 420.3 508.87 416.03 510.19 414.2 512.18 413.59 515.46 412.71 517.72 412.71 518.18 413.18 519.39 412.06 521 407.75 523.04 395.11 521.04 394.04 521.04 391.03 521.73 390.31 521.64 389.61 521.34 386.12 518.79 384.59 518.25 375.37 517.52 372.35 514.96 371.21 513.01 Z" id="24"/>
<path d="M 572.27 337.16 619.32 355.32 625.25 359.11 641.74 379.75 633.27 413.85 632.9 417.29 633.87 418.18 635.74 419.26 637.39 422.88 638.82 431.61 638.7 435.22 637.43 439.31 633.97 443.94 633.37 446.6 633.97 449.35 634.02 452.74 635.24 454.96 635.67 456.57 635.6 458.1 634.39 459.26 632.52 460.54 622.9 465.47 618.2 466.87 615.81 467.99 617.35 470.08 620.75 472.35 622.21 474.45 620.93 478.19 616.17 483.69 616.44 498 615.9 502.73 611.14 519.32 611.15 523.42 612.14 526.89 612.3 528.43 612.17 531.09 613.03 533.9 616.17 537.14 618.35 541.09 617.18 544.23 616.02 546.01 616.69 546.96 618.01 548.04 618.05 549.46 616.72 550.87 615.7 552.77 616.47 555.18 617.9 556.7 618.25 558.28 617.59 559.88 616.81 560.73 616.88 562.08 616.32 562.74 615.82 563.82 615.84 566.37 615.6 567.9 614.78 569.71 613.09 567.42 612.5 566.97 611.37 566.98 609.77 566.41 608.56 566.68 607.34 567.84 605.57 568.03 603.51 567.97 601.81 567.62 601.11 566.51 600.99 565.22 600.57 564.3 600.47 563.5 600.87 562.74 600.93 562.3 600.15 561.85 597.57 561.49 595.99 560.85 594.53 560.55 593.1 561.15 590.87 561.34 587.48 560.79 581.99 561.14 581.92 560.3 582.77 559.37 583.26 557.06 583.25 555.87 583.02 554.67 583.98 546.6 584.55 545.33 585.3 544.5 585.53 543.81 585.48 542.76 584.48 540.11 584.52 539.28 585.41 539.32 588.01 540.74 588.36 539.95 587.17 537.66 584.75 535.15 581.65 532.83 578.81 531.3 576.09 531.24 574.4 532.27 573.4 533.5 571.46 535.13 570.2 534.79 567.41 532.95 554.63 526.9 553.79 524.5 552.5 509.04 551.24 505.8 550.12 503.77 549.01 503.27 548.07 502.06 548.8 500.79 549.94 499.94 549.67 497.86 547.8 495.34 545.92 493.52 544.95 491.88 543.3 489.99 541.15 488.96 539.88 488.81 539.06 488.2 538.46 487.32 536.95 480.9 537.32 476.67 537 476.01 532.68 474.14 530.44 474.07 528.54 475.39 527.27 476.76 522.8 480.51 517.93 482.63 515.29 483.04 510.37 482.38 506.12 480.11 502.57 477.23 498.88 473.03 498.01 468.99 499.04 465.93 498.25 450.19 497.08 448.69 495.85 448.82 490.99 450.82 482.72 456.32 480.6 456.8 478.75 455.99 476.94 454.88 475.13 452.81 471.43 450.27 463.96 448.41 460.45 448.19 452.1 430.05 449.69 429.15 440.22 428.39 438.37 427.36 437.39 426.49 436.49 425.1 436.02 423.52 432.66 417.45 431.53 414.18 431.54 413.37 433.36 412.67 433.78 412.36 437.95 411.92 439.25 411.11 439.2 409.93 438.63 408.29 438.19 405.93 438.72 392.53 437.38 391.74 436.05 390.34 435.07 386.21 432.62 380.67 430.32 376.91 430.21 374.86 431.13 371.85 433.04 368.73 436.67 365.24 459.91 361.71 465.2 361.88 468.58 362.47 476.38 361.56 483.39 358.91 484.01 356.04 484.54 343.03 486.38 339.68 508.32 329.81 511.25 327.17 519.84 323.04 521.75 321.29 522.64 320.14 527.91 320.93 572.27 337.16 Z" id="25"/>
<path d="M 159.59 200.21 160.85 199.65 163.38 199.05 164.89 198.38 165.36 197.22 166.13 197.06 167.45 199.75 168.35 200.14 169.72 199.15 171.18 197.24 172 194.15 170.86 190.33 168.5 188.41 166.81 187.55 164.78 185.53 160.32 177.4 157.44 173.92 158.09 172.88 160.26 170.91 161.2 170.83 163.16 174.13 164.44 174.42 165.79 173.93 166.98 172.98 169.92 172.17 169.93 171.12 169.44 170.24 168.23 168.95 167.49 167.3 168.98 166.96 175.06 169.67 176.46 171.73 178.32 172.67 187.19 172.92 190.82 174.52 194.29 175.22 197.42 174.33 198.94 172.65 198.91 171.92 200.83 171.23 205.35 171.29 208.8 172.9 210.37 174.51 209.11 176.07 211.94 177.83 217.23 178.56 218.39 178.31 224.26 179.52 225.28 180.1 225.25 181.09 225.6 182.56 226.58 183.61 226.42 185.2 225.03 186.46 223.61 186.25 222.81 185.3 222.85 184.26 222.76 183.48 221.64 183.56 220.34 184.89 221.12 187.67 222.96 190.18 223.49 192.08 221.49 193.99 219.11 194.6 217.86 194.71 217.11 195.4 217.22 195.99 218.17 196.75 220.03 197.53 224.46 198.53 226.58 199.36 228.57 201.29 229.61 203.35 230.51 207.8 229.49 209.47 227.69 209.33 226.34 208.31 224.72 206.72 224.09 204.84 224.96 203.31 223.97 202.12 220.4 201.61 212.87 201.94 211.84 203.23 212.31 205.63 211.81 207.09 210.72 208.57 210.57 211.47 211.27 214.66 210.34 214.84 208.43 214.08 204.18 213.72 202.73 214.19 203.33 215.35 205.41 216.03 206.12 218.64 206.45 223 209.39 227.77 210.04 230.02 210.27 232.28 211.03 234.95 210.9 235.92 210.18 236.75 205.87 239.97 194.59 235.97 191.88 236.22 189.68 236.11 188.6 236.36 186.43 238.21 185.21 238.48 183.67 238 174.5 237.09 156.74 227.42 155.89 226.4 154.12 225.45 153.08 225.06 153.8 223.9 155.33 221.99 159.42 221.75 164.06 222.57 165.32 221.71 165.22 219.78 165.67 217.05 165.25 215.37 164.46 214.38 163.51 214.55 161.61 215.24 158.08 218.28 157.03 216.96 156.42 215.25 155.3 214.76 153.94 214.54 150.9 213.17 148.8 211.77 148.4 210.13 148.99 209.48 150.31 209.05 154.45 208.66 156.39 206.3 158.03 203.28 159.39 201.99 159.62 200.83 159.59 200.21 Z" id="26"/>
<path d="M 140.36 237.95 141.08 237.53 141.67 236.73 141.51 236.42 141.47 235.97 141.59 235.2 141.51 234.72 141.3 234.39 141.02 234.14 140.77 233.87 140.67 233.46 140.92 232.88 143.3 231.9 146.26 231.78 148.26 230.92 148.5 228.61 148.12 226.37 148.25 225.45 149.04 225.01 150.24 224.75 153.08 225.06 154.12 225.45 155.89 226.4 156.74 227.42 174.5 237.09 183.67 238 185.21 238.48 186.43 238.21 188.6 236.36 189.68 236.11 191.88 236.22 194.59 235.97 205.87 239.97 205.22 240.84 204.92 242.19 205.44 243.3 205.58 244.25 203.93 247.42 203.59 248.34 203.37 249.33 203.91 250.2 206.01 251.22 208.74 252.05 213.41 252.39 214.55 252.74 217.85 251 218.64 250.31 220.05 246.71 221.88 245.83 224.16 245.19 226.24 244.2 228.51 244.8 230.32 246.63 231.45 248.23 231.49 249.33 230.83 250.52 230.39 251.74 230.78 252.71 232.13 253.67 235.23 254.97 236.65 256.22 237.93 257.06 238.9 256.52 239.17 255.45 239.98 254.11 241.43 253.25 242.35 253.71 243.01 254.69 244.34 255.56 245.24 256.33 245.17 257.53 245.47 258.71 248.11 259.91 248.47 260.24 247.54 261.89 247.37 264.13 247.47 265.91 243.3 272.95 243.06 273.92 242.98 274.68 241.99 275.18 235.84 276.63 233.47 278.98 232.72 283.88 230.83 285.08 227.53 286 226.59 286.51 226.03 287.35 225.78 288.34 225.81 288.75 222.77 289.28 216.96 288.82 207.33 283.24 198.18 282.46 195.6 281.8 193.48 280.07 189.19 279 184.8 279.27 181.9 280.02 171.69 280.6 169.46 282.03 163.81 294.52 161.55 297.31 161.04 296.91 160.23 295.91 153.57 284.12 148.71 278.74 147.36 277.48 146.75 277.23 145.97 277.03 145.43 276.52 144.62 275.22 143.63 274.25 143.18 274.08 142.56 274.05 142.03 273.91 141.8 273.39 141.36 272.96 136.28 270.82 134.52 270.46 133.46 269.93 132.71 269.28 132.71 268.74 131.98 268.45 129.94 267.14 129.74 266.95 129.51 266.8 129.19 266.73 128.91 266.78 128.7 266.97 128.48 267.02 128.18 266.93 128.05 266.74 127.99 266.54 127.91 266.43 126.36 266.01 125.61 265.72 125.07 265.32 124.53 264.77 124.41 264.43 124.89 263.71 124.95 263.29 124.79 262.93 124.36 262.78 122.1 261.63 121.24 261.37 120.16 260.22 118.86 259.65 117.93 258.27 117.28 257.96 117.23 257.64 117.87 256.04 117.99 255.42 118.7 255.17 119.42 255.1 120.33 253.22 122.89 251.19 137.37 247.8 138.18 246.83 140.49 245.55 141.47 244.68 142.03 243.75 142.24 242.44 141.87 240.42 140.93 238.6 140.36 237.95 Z" id="27"/>
<path d="M 505.13 202.07 522.03 198.45 538.45 192.06 548.86 189.87 553.46 190.86 565.51 198.44 566.93 201.04 566.37 203.69 562.37 206.92 545.99 216.47 543.17 220.66 537.97 233.63 537.63 240.61 540.2 252.52 542.14 255.07 550.35 255.89 560.91 253.85 562.68 255.73 564.32 258.36 567.41 275.81 570.1 280.98 573.61 282.66 574.6 283.31 577.27 284.32 580.78 286.17 584.12 290.58 585.21 291.23 585.41 294.4 585.07 295.68 583.96 297.21 583.25 298.69 583.55 299.6 584.18 300.56 585.4 301.72 585.46 302.97 586.72 305.28 588.38 307.6 588.29 309.87 587.34 312.18 586.97 314.2 586.29 316.13 580.79 322.4 579.27 326 575.02 331.61 572.86 336.35 572.27 337.16 527.91 320.93 522.64 320.14 521.75 321.29 519.84 323.04 511.25 327.17 508.32 329.81 486.38 339.68 484.54 343.03 484.01 356.04 483.39 358.91 476.38 361.56 468.58 362.47 465.2 361.88 459.91 361.71 436.67 365.24 433.04 368.73 431.13 371.85 430.21 374.86 430.32 376.91 432.62 380.67 435.07 386.21 436.05 390.34 437.38 391.74 438.72 392.53 438.19 405.93 438.63 408.29 439.2 409.93 439.25 411.11 437.95 411.92 433.78 412.36 433.36 412.67 431.54 413.37 423.15 409.66 416.72 405.47 415.54 403 414.07 393.95 412.27 391.19 405.68 384.2 398.81 373.62 389.16 352.69 383.85 347.17 377.59 342.26 367.07 338.81 365.27 332.73 365.15 329.86 365.59 328.84 366.38 323.83 368.11 318.02 368.49 315.37 367.3 302.66 367.61 301.29 369.26 300.36 372.23 299.62 374.91 298.34 376.74 297.04 379.22 295.71 383.21 294.4 386.23 294.31 399.32 296.84 443.06 284.15 447.43 282.05 449.71 279.72 451.3 277.2 452.65 274.12 454.53 267.21 456.75 264.9 460.85 263.06 464.07 262.77 466.44 261.39 469.97 256.27 471.07 253.34 470.6 225.39 470.6 225.29 471.33 225.01 475.13 224.43 485.73 224.63 490.27 222.69 505.13 202.07 Z" id="28"/>
<path d="M 326.22 203.34 326.78 204.99 326.67 208.36 325.55 211.97 323.73 215.5 322.36 217.12 308.41 220.1 305.21 219.97 296.29 220.82 292.35 222.23 290.8 223.52 290.31 224.73 289.07 232.84 289.94 234.62 291.11 235.14 281.57 232.99 277.31 231.05 266.64 230.23 263.91 228.35 262 226.38 260.99 224.33 261.17 222.63 260.54 221.42 259.33 220.24 258.1 219.63 256.45 219.75 254.95 219.18 253.12 217.82 250.89 215.67 251.28 213.53 255.14 211.75 255.58 210.92 254.72 209.92 254.77 207.22 257.13 205.66 260.86 206.07 264.45 205.22 266.91 203.89 272.03 203.23 276.32 202.03 277.08 201.66 277.57 200.08 278.3 193.73 279.68 190.51 280.85 189.16 280.85 189.27 292.73 189.38 302.66 191.83 326.22 203.34 Z" id="29"/>
<path d="M 304.5 152.06 308.97 154.19 315.3 154.63 320.93 156.41 325.15 160.11 327.55 163.75 329.02 165.14 330.26 165.74 332.29 166.33 335.55 166.49 338.4 165.54 343.76 160.28 347.55 157.85 350.29 158.14 353.24 159.14 356.95 159.7 361.68 161.78 364.83 162.31 367.01 162.07 368.34 161.42 370.14 161.76 373.85 163.84 375.16 168.48 375.7 172.64 374.37 176.35 367.8 181.24 363.69 183.03 358.98 184.3 355.64 184.19 346.33 181.98 343.18 181.92 340.16 181.07 332.62 177.32 330.34 175.7 327.88 175.59 326.98 175.33 326.48 174.93 325.71 174.64 325.02 175.24 324.46 179.03 323.68 181.52 323.43 183.4 323.74 185.16 328.41 190.23 330.28 193.01 329.76 195.56 327.64 198.25 326.38 201.56 326.22 203.34 302.66 191.83 292.73 189.38 280.85 189.27 280.85 189.16 284.42 179.71 284.4 176.82 283.34 175.14 281.42 173.2 282.51 171.14 285.18 169.81 287.35 167.64 288.52 165.14 292.19 164.98 292.69 162.98 292.85 160.31 295.35 157.97 298.69 156.97 302.02 157.31 304.36 156.14 304.36 153.81 304.5 152.06 Z" id="30"/>
<path d="M 281.52 143.69 288.35 144.79 290.98 145.63 291.73 146.51 293.3 147.68 295.03 148.29 301.81 149.5 304.5 152.06 304.36 153.81 304.36 156.14 302.02 157.31 298.69 156.97 295.35 157.97 292.85 160.31 292.69 162.98 292.19 164.98 288.52 165.14 287.35 167.64 285.18 169.81 282.51 171.14 281.42 173.2 279.52 173.34 278.37 175.25 277.2 175.44 276.9 174.06 276.92 171.77 275.32 170.23 272.99 170.21 272.46 171.33 274.07 173.13 274.07 173.82 273.64 174.43 272.6 173.94 270.22 172.19 266.16 171.22 261.99 171.01 260.21 170.67 259.31 169.47 258.27 167.57 257.93 166.29 258.44 164.68 260.71 162.9 269.08 159.58 270.5 158.48 270.99 156.96 272.98 153.63 274.28 150.05 272.37 148.72 269.43 148.02 267.91 146.96 265.8 144.62 267 143.16 271.69 142.85 281.52 143.69 Z" id="31"/>
</g>
</svg>